<?xml version="1.0" encoding="utf-8"?>
<!DOCTYPE svg PUBLIC "-//W3C//DTD SVG 1.0//EN" "http://www.w3.org/TR/2001/REC-SVG-20010904/DTD/svg10.dtd">
<svg version="1.0" xmlns="http://www.w3.org/2000/svg" width="350px" height="416px" viewBox="0 0 350 416" preserveAspectRatio="xMidYMid meet">
 <g fill="#678e01">
  <path d="M163.50 398 c-27.95 -2.45 -52.45 -11.10 -74.75 -26.40 -23.15 -15.85 -42.45 -38.75 -53.45 -63.45 -9 -20.15 -13 -37.65 -13.65 -59.75 -1.40 -50 21.20 -97.05 61.15 -127.30 4.65 -3.45 5.90 -3.95 8.45 -3.10 2.25 0.75 3.75 3.05 3.75 5.70 0 2.25 -1.25 3.65 -8 8.80 -5.35 4.05 -18.25 16.85 -22.70 22.50 -21.30 26.80 -32.15 59.45 -31.15 93.50 0.65 21.45 5.25 39.90 14.85 59.25 18.75 38.05 55.20 66.75 95.75 75.50 13.35 2.85 18.65 3.45 31.75 3.45 13.95 0 22.15 -1 35 -4.20 11.20 -2.80 18.55 -5.55 29.75 -11.20 34.90 -17.65 61.30 -49.45 72.25 -87.05 4.30 -14.75 5.70 -26.25 5.35 -43.25 -0.30 -14.60 -1.45 -22.45 -4.95 -35.25 -8.15 -29.40 -25.85 -55.55 -50.70 -74.80 -3.15 -2.40 -5.30 -4.50 -5.70 -5.45 -1.50 -3.60 1.30 -7.75 5.20 -7.75 1.80 0 2.70 0.45 6.10 2.95 25.90 19.35 45.80 47.50 55 77.70 4.75 15.60 6.75 29.55 6.75 46.60 -0.05 35.65 -11.85 68.70 -34.70 97 -4.60 5.70 -16.90 17.80 -23.10 22.75 -23 18.35 -49.45 29.25 -79.50 32.75 -6.35 0.75 -22.55 1 -28.75 0.50z"/>
  <path d="M159.75 168.25 c-21.25 -3.85 -42.10 -18.30 -54.10 -37.50 -4.05 -6.50 -9 -20.20 -10.20 -28.35 -0.30 -2 -0.70 -5 -0.95 -6.65 -0.85 -5.50 -1.15 -21.75 -0.55 -30.25 0.75 -11.05 2.65 -29.85 3.10 -30.55 0.20 -0.40 3.90 0.80 11.75 3.80 13.55 5.15 21.70 8.70 28.20 12.25 24.10 13.10 41.40 34.50 47.55 58.90 3.05 12 4.35 27.80 3 36.35 -1.30 8.20 -4.75 15.30 -9.10 18.75 -2.40 1.90 -4.30 2.85 -4.75 2.35 -0.15 -0.10 -1.10 -3.20 -2.20 -6.90 -4.45 -15.30 -12.20 -33.85 -19.35 -46.40 -5.80 -10.20 -10.50 -17.40 -17 -26.15 -5.15 -6.90 -6.45 -7.80 -8.95 -6.15 -1.10 0.70 -2.20 2.55 -2.20 3.75 0 0.25 2 3.10 4.45 6.35 13.35 17.80 24.25 37.90 31.70 58.65 2.35 6.60 5.75 17.95 5.45 18.25 -0.40 0.35 -1.85 0.25 -5.85 -0.50z"/>
  <path d="M212.80 133.70 c2 -19.50 8.35 -35.10 20.45 -50.20 3.15 -3.95 3.55 -5 2.50 -6.95 -0.55 -1.10 -1.25 -1.60 -2.60 -1.85 -2.30 -0.45 -2.75 -0.15 -6.30 4.10 -11.35 13.35 -19.30 31.70 -21.65 49.90 -0.45 3.30 -0.85 6.15 -0.95 6.20 -0.10 0.10 -1.15 -0.75 -2.40 -1.85 -4.30 -4 -6.10 -10.75 -6.70 -25.55 -0.70 -18.05 3.20 -32.95 11.40 -43.25 8.20 -10.35 20.25 -17.95 45.95 -28.95 5.35 -2.30 9.90 -4.05 10.15 -3.95 0.50 0.30 0.40 25.40 -0.15 31.90 -1.90 22.10 -5.90 36.50 -13.10 47.35 -6.65 10.10 -18.05 19.30 -29.45 23.85 -2.10 0.80 -4.60 1.65 -5.65 1.80 l-1.80 0.35 0.30 -2.90z"/>
 </g>
 <g fill="#6f4f45">
  <path d="M167 378 c-30.35 -2.10 -58.70 -14.15 -80.35 -34.20 -24.80 -22.95 -39.30 -51.65 -42.65 -84.60 -0.90 -8.60 -0.40 -26.10 0.95 -34 4.50 -26.45 16 -50.10 33.30 -68.70 6.35 -6.80 16.25 -15.55 20.45 -18.05 2 -1.15 3.55 -0.75 4.25 1.20 0.65 1.75 0.05 2.55 -4.70 6.20 -5.90 4.60 -14.45 12.80 -19.20 18.40 -15.35 18.30 -24.70 38.95 -28.65 63.35 -1.40 8.65 -1.50 27.10 -0.25 35.55 3.10 20.30 10.15 38.60 20.95 54.15 17.55 25.45 43.45 43.60 72.90 51.25 20 5.20 42.90 5.20 63.25 -0.05 44.50 -11.50 79.80 -46.95 91 -91.50 2.80 -10.95 3.45 -16.80 3.45 -30.75 0.05 -13.85 -0.25 -16.90 -3 -29.15 -3.90 -17.40 -13.20 -36.40 -25 -50.90 -5.10 -6.30 -12.80 -13.90 -19.80 -19.55 -5 -4 -5.90 -4.95 -5.90 -6.10 0 -3.30 2.90 -3.50 6.80 -0.55 25.65 19.35 43.75 47.70 50.20 78.60 1.95 9.45 2.65 16.75 2.65 27.90 0 21.95 -4.65 41.10 -14.60 60.30 -14.70 28.35 -39.45 50.70 -69.05 62.35 -17.35 6.90 -38.40 10.15 -57 8.85z"/>
  <path d="M235.75 295.45 c-22.05 -1.55 -38.55 -16.25 -43.35 -38.70 -0.35 -1.80 -0.60 -6.35 -0.60 -11.25 0 -7.25 0.20 -8.85 1.30 -13 4.25 -15.70 15.60 -28.10 30.15 -32.95 5.85 -1.95 10.25 -2.65 17 -2.65 24.75 -0.05 43.40 15.75 47.75 40.40 1 5.60 0.40 17.30 -1.15 23.25 -4.25 16.20 -17.40 29.40 -33.25 33.45 -5.05 1.30 -11.85 1.85 -17.85 1.45z m11.70 -23.90 c4.15 -1.30 6.85 -3 9.90 -6.15 7.60 -8.10 9.40 -21.50 4.30 -32.30 -1.60 -3.40 -6.05 -8.15 -9.30 -10.05 -9.95 -5.65 -22.90 -3.60 -30.25 4.70 -12.20 13.85 -6.50 38.45 10 43.55 1.45 0.45 2.90 0.85 3.15 0.95 1.80 0.60 9.50 0.15 12.20 -0.70z"/>
  <path d="M73.20 293.70 c-0.60 -0.15 -1.50 -0.70 -2 -1.30 -0.90 -0.95 -0.95 -3 -1.10 -46 l-0.10 -44.95 1.50 -1.50 1.50 -1.50 20.85 0.15 c19.65 0.20 21.15 0.25 24.90 1.30 14.25 3.90 21.45 12.95 20.60 26.05 -0.45 7.50 -2.45 11.80 -6.95 15.35 -1.35 1 -2.40 1.95 -2.40 2.15 0.05 0.15 1.75 1.45 3.90 2.80 7.05 4.60 10.05 11.15 9.45 20.45 -1 14.35 -7.90 22.35 -22.35 25.90 -3.95 1 -5.85 1.05 -25.50 1.20 -11.70 0.05 -21.75 0 -22.30 -0.10z m38.65 -19.45 c3.20 -0.95 6.35 -4.25 6.85 -7.10 1 -6.25 -0.45 -9.70 -5 -11.95 -2.75 -1.35 -3.10 -1.40 -11.40 -1.40 l-8.55 -0.05 -0.15 10.65 -0.10 10.60 7.90 0 c5.65 0 8.65 -0.20 10.45 -0.75z m-1.60 -38.50 c1.10 -0.55 2.65 -1.95 3.50 -3.15 1.30 -1.90 1.50 -2.60 1.50 -5.55 0 -2.95 -0.20 -3.60 -1.45 -5.25 -2.45 -3.25 -5.40 -4.25 -12.90 -4.35 -3.45 0 -6.55 0.10 -6.85 0.25 -0.35 0.25 -0.55 3.60 -0.55 9.90 l0 9.50 7.40 -0.20 c6.15 -0.10 7.70 -0.30 9.35 -1.15z"/>
  <path d="M158.50 293.35 c-2.55 -1.30 -2.50 0 -2.50 -47.50 l0 -44.45 1.45 -1.45 1.45 -1.45 8.95 0 8.95 0 1.50 1.55 1.45 1.50 0.15 42.60 c0.10 23.45 0 43.55 -0.15 44.75 -0.20 1.15 -0.85 2.75 -1.50 3.50 l-1.15 1.35 -8.70 0.15 c-6.30 0.10 -9 -0.05 -9.90 -0.55z"/>
 </g>
</svg>