<?xml version="1.0" ?><svg enable-background="new 0 0 24 24" viewBox="0 0 24 24" xmlns="http://www.w3.org/2000/svg"><path d="M12 24c-6.617 0-12-5.383-12-12s5.383-12 12-12 12 5.383 12 12-5.383 12-12 12zm0-22c-5.514 0-10 4.486-10 10s4.486 10 10 10 10-4.486 10-10-4.486-10-10-10zm4 15c-.256 0-.512-.098-.707-.293l-8-8c-.391-.391-.391-1.023 0-1.414s1.023-.391 1.414 0l8 8c.391.391.391 1.023 0 1.414-.195.195-.451.293-.707.293zm0 0c-.256 0-.512-.098-.707-.293l-8-8c-.391-.391-.391-1.023 0-1.414s1.023-.391 1.414 0l8 8c.391.391.391 1.023 0 1.414-.195.195-.451.293-.707.293zm-8 0c-.256 0-.512-.098-.707-.293-.391-.391-.391-1.023 0-1.414l8-8c.391-.391 1.023-.391 1.414 0s.391 1.023 0 1.414l-8 8c-.195.195-.451.293-.707.293z"/></svg>