<?xml version="1.0" encoding="utf-8"?>
<svg version="1.1" viewBox="13 15.4 69.5 69.202" xmlns="http://www.w3.org/2000/svg">
  <g transform="matrix(1.046154, 0, 0, 1.046154, -2.92176, -2.91443)">
    <path d="M 78.292 37.893 C 76.659 34.019 74.313 30.544 71.325 27.567 C 68.34 24.581 64.864 22.235 61.001 20.601 C 56.997 18.902 52.737 18.045 48.349 18.045 C 43.961 18.045 39.701 18.906 35.697 20.601 C 31.823 22.235 28.348 24.581 25.372 27.567 C 22.385 30.554 20.039 34.03 18.406 37.893 C 16.706 41.897 15.849 46.157 15.849 50.545 C 15.849 54.932 16.71 59.192 18.406 63.197 C 20.039 67.07 22.385 70.546 25.372 73.521 C 28.358 76.509 31.834 78.854 35.697 80.488 C 39.701 82.188 43.961 83.045 48.349 83.045 C 52.737 83.045 56.996 82.184 61.001 80.488 C 64.875 78.854 68.35 76.509 71.325 73.521 C 74.313 70.536 76.659 67.06 78.292 63.197 C 79.992 59.193 80.849 54.932 80.849 50.545 C 80.853 46.153 79.985 41.897 78.292 37.893 Z M 17.718 50.541 C 17.718 42.361 20.902 34.669 26.689 28.881 C 32.477 23.093 40.172 19.909 48.349 19.909 C 56.352 19.909 63.886 22.962 69.626 28.509 L 53.419 44.706 L 53.197 44.334 L 53.197 29.049 L 53.736 29.049 C 54.269 29.049 54.699 28.619 54.699 28.086 C 54.699 27.554 54.269 27.124 53.736 27.124 L 42.944 27.128 C 42.412 27.128 41.981 27.558 41.981 28.09 C 41.981 28.623 42.412 29.053 42.944 29.053 L 43.484 29.053 L 43.484 44.338 L 32.039 63.772 C 31.47 64.659 31.273 65.687 31.459 66.669 L 26.313 71.815 C 20.763 66.078 17.717 58.543 17.717 50.541 L 17.718 50.541 Z M 33.571 66.957 C 33.198 66.267 33.224 65.461 33.654 64.808 C 33.666 64.797 33.673 64.779 33.673 64.771 L 41.478 51.523 L 55.201 51.523 L 63.006 64.771 C 63.017 64.783 63.024 64.801 63.024 64.808 C 63.455 65.461 63.48 66.275 63.109 66.957 C 62.737 67.647 62.044 68.058 61.259 68.058 L 35.42 68.058 C 34.636 68.047 33.943 67.639 33.57 66.957 L 33.571 66.957 Z M 42.615 49.6 L 45.278 45.081 C 45.362 44.932 45.409 44.764 45.409 44.596 L 45.409 29.049 L 51.282 29.049 L 51.282 44.592 C 51.282 44.76 51.329 44.928 51.412 45.077 L 54.076 49.596 L 42.615 49.6 Z M 70.002 72.205 C 64.214 77.992 56.519 81.176 48.341 81.176 C 40.704 81.176 33.487 78.394 27.857 73.313 L 32.477 68.693 C 33.225 69.506 34.271 69.972 35.417 69.972 L 61.26 69.972 C 62.763 69.972 64.08 69.189 64.799 67.872 C 65.509 66.566 65.452 65.034 64.648 63.784 L 54.55 46.62 L 71.123 30.048 C 76.203 35.679 78.986 42.897 78.986 50.533 C 78.975 58.721 75.791 66.413 70.003 72.205 L 70.002 72.205 Z" style="stroke: rgb(0, 0, 0);"/>
  </g>
</svg>