<?xml version="1.0" encoding="utf-8"?>
<!DOCTYPE svg PUBLIC "-//W3C//DTD SVG 1.0//EN" "http://www.w3.org/TR/2001/REC-SVG-20010904/DTD/svg10.dtd">
<svg version="1.0" xmlns="http://www.w3.org/2000/svg" width="966px" height="318px" viewBox="0 0 966 318" preserveAspectRatio="xMidYMid meet">
 <g fill="#6c4c40">
  <path d="M397.75 211.65 c-11.65 -0.75 -22.05 -3.95 -28.65 -8.85 -7.90 -5.85 -12.70 -13.55 -15.20 -24.50 -1 -4.30 -1.05 -6.35 -1.25 -38.30 -0.15 -23.80 -0.05 -34.30 0.30 -35.60 0.35 -1.10 1.35 -2.50 2.45 -3.35 l1.85 -1.55 13.15 0 c14.30 0 15.05 0.10 16.90 2.85 0.90 1.35 0.95 3 1.20 32.40 0.30 34.50 0.20 33.45 3.80 37.65 3.15 3.70 8.70 5.30 14.35 4.10 4.10 -0.85 7.25 -3.20 9.10 -6.75 l1.50 -2.95 0.25 -31 c0.30 -34.50 0.15 -33.20 3.65 -35.30 1.50 -0.90 2.60 -1 14.60 -1 12 0 13.10 0.10 14.60 1 3.30 2 3.15 0.45 3.15 37.60 0 37 -0.15 39.15 -3 46.95 -1.90 5.30 -3.30 7.60 -7.25 12.15 -5.85 6.65 -14.40 11.15 -25.25 13.20 -5.05 1 -15.10 1.60 -20.25 1.25z"/>
  <path d="M880 211.70 c-15.05 -1.70 -26.35 -6.95 -36.10 -16.75 -9.55 -9.55 -14.65 -20.90 -15.95 -35.45 -2.70 -30.55 17.45 -56.30 47.95 -61.30 6.30 -1.05 17.45 -0.70 23.85 0.75 21.95 4.85 38.45 21.10 43.05 42.30 7.15 32.70 -12 62.90 -44.05 69.50 -3.85 0.80 -15.10 1.35 -18.75 0.95z m11.15 -35.45 c11.45 -2.40 18.70 -13.25 16.85 -25.15 -1.80 -11.15 -10.60 -18.60 -22 -18.60 -4.80 0 -8.85 1.20 -12.70 3.75 -11.45 7.60 -12.90 24.70 -2.90 34.50 5.20 5.15 12.85 7.20 20.75 5.50z"/>
  <path d="M473.15 209.45 c-0.90 -0.25 -2.25 -1.30 -3 -2.30 l-1.40 -1.80 -0.15 -49.55 c-0.10 -33.85 0 -50.15 0.40 -51.40 0.25 -1 1.30 -2.50 2.25 -3.35 l1.80 -1.55 24.40 0 c28.45 0 31.45 0.25 41.30 3.40 13.50 4.30 19.80 13.50 19.10 27.85 -0.45 8.75 -3.75 15 -10.20 19.10 -2.40 1.50 -3.05 2.65 -1.55 2.65 1.25 0 8 4.70 9.95 6.90 4.85 5.45 6.85 12.90 5.90 21.80 -1.70 15.85 -10.75 24.20 -29.90 27.65 -3.40 0.60 -9.70 0.80 -30.80 0.95 -16.45 0.10 -27.10 0 -28.10 -0.35z m48.10 -28.20 c4.05 -2.05 5.60 -7.30 3.25 -11.15 -1.75 -2.85 -4.60 -3.70 -12.85 -4 l-7.15 -0.25 0 8.35 0 8.35 7.40 -0.15 c6.15 -0.10 7.70 -0.30 9.35 -1.15z m-3.90 -41.30 c3.05 -1.55 4.30 -3.75 4 -7.25 -0.35 -4.95 -3.50 -7 -11.80 -7.50 l-5.05 -0.35 0 8.40 0 8.40 5.25 -0.25 c4.15 -0.25 5.75 -0.55 7.60 -1.45z"/>
  <path d="M577.15 209.45 c-0.90 -0.25 -2.25 -1.30 -3 -2.30 l-1.40 -1.80 -0.15 -49.55 c-0.10 -33.85 0 -50.15 0.40 -51.40 0.25 -1 1.30 -2.50 2.25 -3.35 l1.80 -1.55 24.40 0 c28.45 0 31.45 0.25 41.30 3.40 13.50 4.30 19.80 13.50 19.10 27.85 -0.45 8.75 -3.75 15 -10.20 19.10 -2.40 1.50 -3.05 2.65 -1.55 2.65 1.25 0 8 4.70 9.95 6.90 4.85 5.45 6.85 12.90 5.90 21.80 -1.70 15.85 -10.75 24.20 -29.90 27.65 -3.40 0.60 -9.70 0.80 -30.80 0.95 -16.45 0.10 -27.10 0 -28.10 -0.35z m48.10 -28.20 c4.05 -2.05 5.60 -7.30 3.25 -11.15 -1.75 -2.85 -4.60 -3.70 -12.85 -4 l-7.15 -0.25 0 8.35 0 8.35 7.40 -0.15 c6.15 -0.10 7.70 -0.30 9.35 -1.15z m-3.90 -41.30 c3.05 -1.55 4.30 -3.75 4 -7.25 -0.35 -4.95 -3.50 -7 -11.80 -7.50 l-5.05 -0.35 0 8.40 0 8.40 5.25 -0.25 c4.15 -0.25 5.75 -0.55 7.60 -1.45z"/>
  <path d="M681.20 209.45 c-0.90 -0.25 -2.25 -1.30 -3 -2.30 l-1.45 -1.90 -0.15 -49.50 c-0.10 -34.15 0 -50.05 0.40 -51.35 0.30 -1.10 1.25 -2.45 2.40 -3.35 l1.85 -1.55 13.25 0 c14.45 0.05 14.60 0.05 16.75 3 l1.25 1.70 0 50 c0 46.65 -0.05 50.15 -0.90 51.75 -0.45 0.95 -1.50 2.20 -2.25 2.75 -1.35 1 -2.15 1.05 -14 1.15 -6.95 0.05 -13.30 -0.10 -14.15 -0.40z"/>
  <path d="M732.20 209.45 c-0.90 -0.25 -2.25 -1.30 -3 -2.30 l-1.45 -1.90 -0.15 -49.50 c-0.10 -34.15 0 -50.05 0.40 -51.35 0.30 -1.10 1.25 -2.45 2.40 -3.35 l1.85 -1.55 25.25 0 c22.95 0 25.70 0.10 30.25 0.95 8.60 1.70 14.30 4 19.25 7.80 9.80 7.65 14.15 17.50 14.10 32.25 0 8.20 -1 12.95 -4 19 -2.90 5.80 -6.60 9.95 -11.80 13.10 -8.40 5.15 -15.60 6.85 -30.90 7.25 l-10.90 0.30 0 12.05 c0 13.25 -0.20 14.35 -3.15 16.50 -1.35 1 -2.15 1.05 -14 1.15 -6.95 0.05 -13.30 -0.10 -14.15 -0.40z m44.80 -59.95 c5.05 -0.95 7.65 -4.10 7.70 -9.30 0 -3.75 -1.40 -6.25 -4.40 -7.85 -1.80 -0.95 -3 -1.10 -9.40 -1.25 l-7.40 -0.20 0 9.55 0 9.55 5.45 0 c2.95 0 6.60 -0.25 8.05 -0.50z"/>
  <path d="M682.75 88.30 c-1.95 -0.90 -2.70 -1.80 -8.25 -9.80 -6.60 -9.60 -7.10 -11 -4.50 -13.55 l1.50 -1.50 11.20 0.15 c10.30 0.15 11.35 0.25 12.65 1.15 0.95 0.70 2.65 3.60 5.35 9 4.45 8.95 5.10 11.65 3.40 13.75 -1 1.25 -1.05 1.25 -10.45 1.40 -7.15 0.05 -9.75 -0.05 -10.90 -0.60z"/>
  <path d="M874.75 88.30 c-0.80 -0.35 -1.95 -1.20 -2.55 -1.85 -1.90 -2.20 -10.35 -14.65 -11.05 -16.40 -1.05 -2.50 -0.50 -4.70 1.50 -5.75 1.40 -0.75 2.95 -0.85 12.45 -0.70 9.90 0.15 10.95 0.25 12.25 1.15 1.55 1.10 9.05 15.75 9.50 18.55 0.45 2.70 -0.20 4.20 -2.10 5 -2.35 0.95 -17.80 0.95 -20 0z"/>
 </g>
 <g fill="#698f03">
  <path d="M358.80 297.90 c-1.55 -1 -2.95 -2.50 -3.65 -3.85 -1.15 -2.20 -1.15 -2.30 -1.15 -22.05 0 -10.95 0.15 -20.60 0.30 -21.45 0.45 -2.25 3.80 -5.80 6.45 -6.85 4.45 -1.65 9.30 -0.05 12.15 4.15 l1.35 1.90 0.15 21 0.15 21.05 -1.20 2.20 c-0.60 1.20 -2 2.85 -3.05 3.70 -1.60 1.35 -2.35 1.55 -5.45 1.70 -3.40 0.20 -3.75 0.10 -6.05 -1.50z m7.65 -6.35 c0.55 -0.55 1.15 -1.75 1.30 -2.65 0.15 -0.90 0.25 -9.50 0.15 -19.05 l-0.15 -17.45 -1.40 -1.20 c-1.75 -1.50 -2.45 -1.50 -4.20 0 l-1.40 1.20 -0.15 17.45 c-0.10 9.55 0 18.15 0.15 19.05 0.60 3.15 3.75 4.60 5.70 2.65z"/>
  <path d="M393.25 298.80 c-3.75 -1.60 -6.70 -7.60 -6.85 -13.95 -0.05 -1.80 0.05 -3.45 0.20 -3.65 0.55 -0.55 4.60 -0.80 5.30 -0.30 0.35 0.25 0.85 2 1.15 3.90 0.50 3.65 1.70 6.60 3 7.35 1.30 0.80 3.35 -0.05 4.30 -1.80 0.65 -1.15 0.90 -2.75 0.90 -5.85 0 -5.10 -1 -7.25 -4.65 -10 -3.90 -2.90 -7.25 -6.60 -8.85 -9.75 -1.35 -2.70 -1.45 -3.40 -1.40 -7.50 0.05 -7.10 2.65 -11.65 7.45 -13.25 2.70 -0.90 6.35 -0.40 8.45 1.20 2.55 2 3.40 3.90 3.45 8.30 l0.05 3.75 -2.85 0.15 c-3.15 0.15 -2.95 0.40 -3.65 -3.95 -0.35 -2.20 -1.35 -3.15 -2.85 -2.80 -1.85 0.50 -3.10 3.15 -3.10 6.65 0 4.05 1.20 5.85 7.05 10.80 5.05 4.25 6.85 7.15 7.80 12.55 1 6 -0.65 13.35 -3.75 16.20 -2.65 2.50 -7.85 3.40 -11.15 1.95z"/>
  <path d="M424.60 298.40 c-0.45 -0.45 -0.60 -6.35 -0.60 -23.45 0 -19.15 -0.10 -22.90 -0.70 -23.40 -0.40 -0.35 -1.80 -0.75 -3.15 -0.85 -1.30 -0.15 -2.60 -0.45 -2.80 -0.65 -0.25 -0.25 -0.35 -1.60 -0.25 -3.10 l0.15 -2.70 10 -0.15 c11.10 -0.15 11.25 -0.10 11.25 3.15 0 2.25 -0.90 3.10 -3.70 3.40 -1.60 0.15 -2.75 0.55 -3.15 1.15 -0.50 0.70 -0.65 5.65 -0.65 23.45 0 16.85 -0.15 22.70 -0.60 23.15 -0.35 0.35 -1.65 0.60 -2.90 0.60 -1.25 0 -2.55 -0.25 -2.90 -0.60z"/>
  <path d="M448.60 298.20 l-1.10 -0.75 0 -25.75 0 -25.75 1.25 -1.25 c1.25 -1.25 1.40 -1.30 7.80 -1.10 7.30 0.15 7.45 0.25 7.45 3.75 0 3 -0.85 3.65 -4.95 3.65 -1.95 0 -3.60 0.25 -3.95 0.60 -0.45 0.45 -0.60 3.50 -0.60 10.70 0 11.65 0 11.70 3.95 11.70 2.85 0 3.55 0.60 3.55 3.15 0 3.10 -0.65 3.85 -3.50 3.85 -3.65 0 -4.05 0.65 -3.90 6.20 l0.15 4.55 4 0.15 c2.15 0.10 4.25 0.40 4.60 0.70 0.80 0.65 0.85 4.05 0.15 5.45 -0.50 0.85 -1.10 0.95 -7.15 0.95 -5.20 0 -6.85 -0.15 -7.75 -0.80z"/>
  <path d="M479 298 c-0.35 -0.70 -0.50 -8.70 -0.40 -26.50 l0.15 -25.45 1.15 -1.15 c0.95 -0.95 1.75 -1.15 5 -1.30 6.95 -0.35 10.40 1.50 13.05 6.85 2.20 4.45 2.80 7.30 2.80 13.55 0 6.55 -1.10 11.05 -3.75 15.15 -0.80 1.30 -1.50 3 -1.50 3.75 0 0.75 0.70 4.30 1.60 7.90 0.85 3.60 1.45 6.90 1.25 7.35 -0.25 0.65 -1 0.85 -3.30 0.85 l-3 0 -0.55 -1.85 c-0.30 -1.05 -1.05 -3.90 -1.65 -6.40 -0.85 -3.45 -1.30 -4.55 -2.05 -4.65 -1.65 -0.35 -2.05 0.80 -2.30 6.80 l-0.25 5.85 -2.85 0.15 c-2.45 0.15 -2.90 0 -3.40 -0.90z m11.45 -22.15 c2.15 -2 3.20 -5.15 3.45 -10.65 0.30 -6.20 -0.60 -9.80 -3.10 -12.40 -1.90 -2.05 -2.90 -2.20 -4.30 -0.80 -0.95 0.95 -1 1.65 -1 12.30 0 12.40 0.20 13.50 2.40 12.95 0.75 -0.20 1.90 -0.80 2.55 -1.40z"/>
  <path d="M513.35 298.65 c-0.20 -0.15 -0.35 -12.50 -0.35 -27.45 l0 -27.10 1.15 -0.30 c1.55 -0.40 4 -0.35 4.75 0.10 0.50 0.35 0.60 6.15 0.60 27.30 0 14.75 -0.10 27.10 -0.25 27.35 -0.35 0.50 -5.40 0.65 -5.90 0.10z"/>
  <path d="M529.70 298.30 c-0.15 -0.40 0.75 -7 1.95 -14.65 1.25 -7.65 3.10 -19.20 4.15 -25.65 1 -6.45 2.15 -12.25 2.55 -12.85 0.60 -1 1.10 -1.15 3.90 -1.15 2.80 0 3.30 0.15 3.95 1.15 0.80 1.30 9.05 52.55 8.55 53.35 -0.15 0.25 -1.55 0.50 -3.05 0.50 -3.15 0 -3.40 -0.35 -4 -5.40 -0.45 -4.25 -1.35 -5.10 -5.35 -5.10 -4.20 0 -4.80 0.50 -5.45 4.75 -0.85 5.60 -0.95 5.75 -4.15 5.75 -1.95 0 -2.85 -0.20 -3.05 -0.70z m15.30 -19.30 c0.40 -0.75 0.20 -3.35 -0.75 -10.40 -0.75 -5.15 -1.45 -9.45 -1.55 -9.55 -0.65 -0.65 -1.20 1.60 -2.35 9.85 -1.55 10.70 -1.50 11.10 1.90 11.10 1.70 0 2.35 -0.25 2.75 -1z"/>
  <path d="M127.25 250.75 c-7.25 -1.30 -14.45 -4.90 -19.05 -9.50 -4.70 -4.70 -5.45 -9.15 -2.45 -15.05 3.20 -6.35 8.25 -11.55 21.75 -22.45 13 -10.45 24.75 -24.65 31.75 -38.50 5.90 -11.60 7.80 -23.65 4.85 -31 -1.05 -2.60 -4.15 -8.20 -4.60 -8.25 -0.15 0 -0.25 4 -0.30 8.90 0 7.45 -0.20 9.45 -1.10 12.80 -4.60 16.65 -18.05 34.75 -33.60 45.15 -11.05 7.40 -22.05 12.15 -32.75 14.15 -5.55 1 -14.60 1.15 -20.15 0.30 -11.30 -1.70 -21.95 -7.80 -29.05 -16.55 -6.10 -7.50 -11.45 -18.15 -10.85 -21.50 0.85 -4.55 7.50 -5.95 24.05 -5.20 25.80 1.20 32.90 1.35 40 0.90 8.20 -0.50 15.75 -1.80 21.20 -3.65 4 -1.35 11.15 -5.90 13.50 -8.55 1.95 -2.25 4.15 -6.55 5.45 -10.75 1.85 -6.10 2.05 -13.50 0.30 -13.50 -0.40 0 -3.70 3 -7.35 6.65 -3.60 3.65 -8.10 7.70 -9.90 9 -4.80 3.40 -12.95 7.15 -19 8.70 -4.85 1.30 -5.85 1.40 -15.45 1.35 -11.10 0 -13.85 -0.35 -24 -3.25 -5.60 -1.60 -13.30 -4.85 -17.95 -7.55 -3.65 -2.15 -10.35 -8.80 -12.95 -12.85 -4.10 -6.35 -5.85 -13.55 -5.45 -22.50 0.35 -8.40 2.35 -13.15 6.80 -16.30 2.10 -1.45 2.30 -1.50 7.45 -1.45 7.25 0.10 11.90 1.70 27.80 9.60 18 8.90 27.05 11.80 40.80 13.10 7.60 0.75 19.30 -0.65 19.85 -2.35 0.40 -1.15 -6.05 -2.85 -25.10 -6.70 -10.70 -2.15 -21.25 -4.45 -23.40 -5.15 -14.10 -4.65 -25.55 -15.20 -26.65 -24.65 -0.20 -1.40 -0.20 -3.15 0 -3.85 0.45 -1.75 3.10 -4.65 5.25 -5.75 6.90 -3.50 23.05 -2.45 35.25 2.25 13.40 5.15 29.20 15.65 45.80 30.40 2.30 2.05 4.30 3.65 4.35 3.60 0.10 -0.10 -0.30 -2.05 -0.85 -4.35 -2.70 -11.45 -4.30 -25.90 -3.85 -35.40 0.30 -6.85 1.85 -14 4.05 -18.85 1.55 -3.40 6.60 -8.55 10.05 -10.20 2.20 -1.10 3.15 -1.25 8.25 -1.25 5.50 0 5.90 0.05 8.85 1.60 6.85 3.60 11.05 12.05 10.50 21.15 -0.35 6.40 -2.80 13.50 -9.10 26.75 -7.70 16.20 -7.95 24.75 -0.80 32.85 3.20 3.60 12.60 9.35 15.45 9.40 1.10 0 0.65 -2.80 -1.45 -8.45 -4.25 -11.65 -5.75 -20.25 -5.30 -30.30 0.80 -16.85 7.30 -30.90 21.65 -46.95 14.15 -15.70 31.45 -20.95 47.65 -14.35 4.95 2 7.90 3.85 11.15 6.95 5.50 5.20 6.20 9.35 2.70 15.95 -3.40 6.45 -8.05 11.10 -22.80 23 -7.30 5.85 -17 15.75 -21.15 21.50 -5.25 7.35 -9.95 17.70 -11.10 24.55 -0.30 1.85 -0.25 2.10 0.65 2.10 1.70 0 6.55 -5.95 16.20 -20.05 5.90 -8.55 14.35 -19.40 17.80 -22.80 8.55 -8.40 19.60 -12.90 27.35 -11.20 7.25 1.65 11.70 9.05 10.25 17.15 -2.05 11.15 -11.15 22 -26 30.90 -2.30 1.35 -3.90 2.50 -3.60 2.50 0.30 0 7.80 -2.45 16.70 -5.50 24.75 -8.35 33.60 -10.50 43.65 -10.50 9.25 0 14.60 1.80 18.70 6.30 3 3.30 4.25 5.85 5.25 10.80 2.30 11.35 0.20 16.85 -7.40 19.20 -5.85 1.80 -11.65 1.95 -36.95 0.95 -13.90 -0.50 -27.80 -0.80 -32.85 -0.60 -17.45 0.55 -28.35 3.90 -35.95 11.05 -3.95 3.75 -6.85 10.10 -7.80 16.95 -0.35 2.70 0.95 7.55 1.90 7.20 0.35 -0.10 2 -2.20 3.70 -4.65 9.40 -13.55 19.20 -19.85 33.05 -21.35 15.25 -1.60 36.35 4 50.75 13.50 9.40 6.25 17.75 17.70 18.70 25.70 0.65 5.65 -2.60 10.95 -7.90 12.70 -3.40 1.15 -10.90 1.15 -16.55 0 -5.10 -1.05 -14.70 -4.50 -22.40 -8 -9.90 -4.60 -29.25 -8.95 -42.60 -9.60 -5.70 -0.25 -6.40 -0.20 -6.70 0.55 -0.50 1.35 1.20 2.75 6.60 5.30 9.20 4.45 28.55 12.10 38.95 15.50 4.25 1.40 11.50 4.95 15.25 7.50 4.20 2.85 9.35 8.60 11.15 12.40 2 4.25 2.20 9.10 0.50 11.25 -1.95 2.55 -4.65 4.30 -7.55 4.95 -4.35 1 -14.80 0.75 -21.50 -0.55 -10.65 -2.05 -32.30 -11 -42.65 -17.60 -2.10 -1.35 -3.95 -2.45 -4.10 -2.45 -0.20 0 -0.35 1.35 -0.35 3.05 0 3.25 -0.50 5.85 -2.10 10.85 -1.30 4 -2.75 6.65 -5.65 10.05 -5.80 6.80 -13.20 10.25 -22 10.25 -6.80 0 -10.70 -1.70 -12.45 -5.45 -0.80 -1.70 -0.80 -2.10 -0.15 -5.50 0.90 -4.40 3.20 -9.10 7.05 -14.45 5.95 -8.30 8.30 -15.15 8.30 -24.20 0 -5.75 -0.90 -11.20 -3.50 -21.35 -2.75 -10.65 -7.65 -24.75 -8.65 -24.75 -1.05 0 -3.70 2.05 -4.25 3.25 -1.45 3.15 -1.25 4.70 1.90 15.75 3.75 12.90 4.45 16.70 4.50 23.30 0.05 14.25 -5.10 26.55 -16.85 40.25 -3.95 4.65 -7.30 7.35 -13.75 11.10 -8.10 4.65 -16.85 6.25 -25.65 4.60z"/>
 </g>
</svg>