<?xml version="1.0" encoding="utf-8"?>
<!DOCTYPE svg PUBLIC "-//W3C//DTD SVG 1.0//EN" "http://www.w3.org/TR/2001/REC-SVG-20010904/DTD/svg10.dtd">
<svg version="1.0" xmlns="http://www.w3.org/2000/svg" width="460px" height="342px" viewBox="0 0 460 342" preserveAspectRatio="xMidYMid meet">
 <g fill="#698f03">
  <path d="M172.40 329.75 c-2.15 -0.40 -6.20 -1.65 -9 -2.75 -12.20 -4.85 -19.80 -12.15 -20.70 -19.85 -0.45 -3.55 1.20 -8.20 4.80 -13.60 4.65 -6.90 11.05 -13 27.80 -26.45 14.60 -11.65 30 -30.45 38.15 -46.60 5.95 -11.75 8 -18.65 8.40 -28.50 0.25 -5.85 0.15 -7.35 -0.80 -11 -1.05 -4.25 -4.25 -10.60 -6.30 -12.50 l-1.10 -1.05 0.40 2.40 c0.60 3.55 0.55 14.70 -0.10 18.80 -2.90 19.25 -12.15 36.15 -28.90 52.85 -9.60 9.55 -18.90 16.20 -31.05 22.25 -9.50 4.75 -18.60 7.80 -28.25 9.55 -7.30 1.30 -21.25 1.20 -27.85 -0.25 -8.25 -1.75 -15.90 -5.05 -22.30 -9.55 -9.25 -6.55 -16.90 -15.75 -22.70 -27.45 -2.95 -5.90 -3.65 -7.75 -3.80 -10.15 -0.20 -2.90 -0.20 -2.95 1.80 -4.85 1.55 -1.50 2.75 -2.10 5.45 -2.70 5 -1.20 12.60 -1.45 24.15 -0.90 27.80 1.35 44.85 1.75 53.30 1.15 9.20 -0.65 18.10 -2.25 25.40 -4.60 5.45 -1.75 13.65 -6.90 17.40 -10.90 2.55 -2.75 5.95 -9.05 7.40 -13.80 2.45 -7.95 2.70 -18.30 0.45 -18.30 -0.35 0 -4 3.45 -8.15 7.65 -8.40 8.55 -11.40 11.15 -16.55 14.50 -9.40 6 -19.80 9.85 -30.75 11.40 -5.85 0.80 -18.60 0.65 -25.15 -0.25 -11.20 -1.60 -23.60 -5.20 -32.65 -9.50 -8.45 -4.05 -11.45 -6 -16.35 -10.75 -7.85 -7.65 -12 -14.50 -14.40 -23.80 -0.95 -3.75 -1.15 -5.80 -1.20 -12.50 0 -9 0.45 -11.60 3.05 -17.10 3.05 -6.50 7.45 -9.15 14.95 -9.15 8.50 0 17.35 3.10 36.75 12.85 17.80 8.95 23.65 11.25 37 14.60 9.60 2.40 24.70 3.25 33.35 1.85 7.70 -1.25 9.25 -2.05 6.85 -3.60 -2.65 -1.75 -9.10 -3.25 -39.45 -9.20 -18.25 -3.60 -24.20 -5.20 -30.75 -8.45 -6.35 -3.10 -11.05 -6.50 -16.55 -12 -4.40 -4.45 -5.60 -6 -7.20 -9.30 -1.65 -3.35 -1.95 -4.65 -2.15 -8.05 -0.20 -3.35 -0.05 -4.35 0.80 -6 3.40 -6.65 12.50 -9.45 26.65 -8.20 18.70 1.65 33.15 7.25 53.80 20.80 8.55 5.65 24.90 18.70 33.30 26.65 1.55 1.50 2.85 2.50 2.85 2.25 0 -0.25 -0.65 -3.50 -1.50 -7.20 -4 -18.35 -5.85 -38.55 -4.55 -49.25 1 -7.70 3.15 -15.60 5.60 -20.35 2.70 -5.20 7.45 -10.15 11.70 -12.10 9.85 -4.70 22.25 -2.70 28.70 4.55 3.45 3.85 6.40 9.75 7.30 14.45 2.10 10.80 -0.30 19.95 -11.40 43.20 -5.50 11.50 -7.55 18.30 -7.60 25.25 0 4.05 0.25 5.60 1.20 8.35 1.55 4.30 5.25 9.30 9.10 12.25 6.10 4.75 14.85 9.20 16.70 8.45 1.20 -0.45 0.90 -1.85 -1.70 -9.15 -5.65 -15.65 -7.55 -25 -7.55 -36.55 0.05 -20.10 5.95 -36.60 19.55 -54.60 12.80 -16.90 25.20 -26.75 38.70 -30.75 6.05 -1.75 16 -2.25 22.25 -1.05 12.30 2.30 24.55 9.80 28.60 17.40 0.95 1.75 1.15 2.90 1.15 6.40 0 3.85 -0.20 4.55 -1.70 7.50 -4.85 9.35 -10.60 15.20 -30.50 31.20 -12.95 10.35 -24.55 22.90 -31 33.40 -6.05 9.95 -11.60 25.40 -10.35 28.70 0.30 0.75 0.40 0.75 1.60 -0.05 0.70 -0.45 1.95 -1.55 2.75 -2.40 2 -2.20 11.25 -14.70 21.25 -28.85 13.85 -19.55 19.30 -25.55 28.95 -31.95 6.35 -4.15 11.80 -6.40 17 -6.95 9.90 -1.05 16.35 2 20.25 9.60 4.90 9.75 0.55 23.60 -11.70 37.20 -4.40 4.85 -15.65 13.30 -23.55 17.70 -1.35 0.75 -2.25 1.40 -1.95 1.40 0.35 0 10.90 -3.50 23.50 -7.75 31.30 -10.50 39.90 -12.60 53.75 -13.10 9.35 -0.35 13.35 0.35 19.45 3.40 9.25 4.65 14 14.30 14 28.60 0 6 -0.45 7.65 -3 10.55 -2.55 2.90 -5.40 4.15 -12.75 5.65 -5.30 1.05 -24.60 1.05 -45.25 0 -25.05 -1.30 -32.75 -1.50 -42.25 -0.90 -19.35 1.25 -29.80 4.05 -39.95 10.80 -7.60 5 -12.75 13.95 -14.35 24.75 -0.50 3.60 -0.45 4.20 0.55 7.20 0.60 1.80 1.25 3.30 1.50 3.30 0.50 0 2.80 -2.95 7.10 -9.10 6.35 -9.15 13.25 -15.30 22.15 -19.80 14.60 -7.35 33.50 -7.45 57.05 -0.35 15.75 4.80 27.50 11.50 37.25 21.20 7.10 7.15 11.60 14.10 13.50 20.80 1 3.75 0.85 10 -0.40 12.75 -5.80 12.90 -28.70 11.80 -60 -2.95 -3.50 -1.65 -8.75 -3.65 -11.65 -4.50 -15.80 -4.45 -43.95 -8.90 -49.75 -7.85 -5.95 1.15 0.35 5.70 17.85 12.95 9.10 3.85 24.60 9.70 36.65 13.95 10.65 3.75 14.45 5.50 20 9.20 8.75 5.80 16.20 14.20 18 20.35 1.10 3.70 0.95 8.55 -0.30 11.20 -2.95 6.05 -12.55 8.90 -26.25 7.75 -10.40 -0.90 -15.05 -1.85 -24.70 -5.10 -14.90 -4.95 -29.50 -11.60 -41.25 -18.75 -3 -1.80 -5.70 -3.35 -5.95 -3.40 -0.25 -0.05 -0.55 1.35 -0.65 3.15 -0.85 17.10 -9.35 31.20 -22.55 37.35 -6.15 2.85 -10.85 3.80 -17.60 3.55 -4.50 -0.20 -6.30 -0.50 -8.25 -1.35 -2.80 -1.25 -5.45 -3.55 -6.60 -5.75 -0.95 -1.80 -0.60 -5.80 0.95 -10.70 1.45 -4.70 2.90 -7.40 8.15 -15.10 5.50 -8.05 7.35 -11.55 8.95 -17.20 3.30 -11.30 2.55 -22.05 -3 -43.20 -2.85 -11 -9.45 -30.10 -10.65 -30.80 -0.20 -0.15 -1.55 0.50 -2.95 1.50 -2.25 1.50 -2.65 2.05 -3.40 4.55 -1 3.45 -0.75 6.10 1.25 12.65 4.75 15.85 5.70 19.30 6.55 24.20 1.25 6.80 1.35 17.60 0.20 24.05 -2.60 15.20 -12.15 32 -25.25 44.50 -8.25 7.90 -15.70 12.40 -24.70 15 -5.75 1.65 -16.40 2.15 -22.35 1z"/>
 </g>
</svg>