<?xml version="1.0" encoding="utf-8"?>
<!DOCTYPE svg PUBLIC "-//W3C//DTD SVG 1.0//EN" "http://www.w3.org/TR/2001/REC-SVG-20010904/DTD/svg10.dtd">
<svg version="1.0" xmlns="http://www.w3.org/2000/svg" width="584px" height="490px" viewBox="0 0 584 490" preserveAspectRatio="xMidYMid meet">
 <g fill="#fefdfd">
  <path d="M210.20 450.10 c-1.15 -0.85 -2.55 -2.50 -3.15 -3.70 -1 -2.15 -1.05 -2.85 -1.05 -19.90 0 -17.10 0.05 -17.70 1.10 -19.80 3.15 -6.30 11.75 -6.90 15.70 -1.05 l1.45 2.10 0.15 18.20 c0.15 17.70 0.10 18.20 -0.95 20.35 -1.65 3.40 -3.90 4.90 -7.90 5.10 -3 0.15 -3.45 0.05 -5.35 -1.30z m7 -6.05 c0.75 -0.85 0.85 -2.60 0.80 -17.60 0 -16.35 0 -16.70 -1.05 -17.55 -1.40 -1.20 -2.60 -1.15 -3.75 0.15 -0.90 1 -0.95 2.15 -1.10 17.15 -0.15 15.75 -0.10 16.15 0.90 17.45 1.25 1.60 3 1.75 4.20 0.40z"/>
  <path d="M239.90 450.50 c-1 -0.55 -2.30 -1.75 -2.85 -2.70 -1.75 -2.85 -2.90 -7.85 -2.60 -11.40 0.10 -1.25 1.90 -2.05 3.85 -1.70 1.45 0.30 1.70 0.55 1.95 2.20 0.85 5.85 1.95 8.10 4 8.10 2.05 0 3 -1.75 3.15 -5.95 0.25 -5.35 -0.40 -6.65 -5.55 -11 -3.55 -2.95 -4.55 -4.15 -5.95 -6.90 -1.45 -3 -1.65 -3.80 -1.55 -7.15 0.05 -3.65 1.05 -6.95 2.75 -9.05 2.45 -3 7.85 -3.90 10.90 -1.80 2.60 1.70 3.60 3.85 3.65 7.75 l0.10 3.35 -2.60 0.15 c-2.50 0.15 -2.65 0.10 -2.90 -1.25 -0.85 -4.10 -1 -4.40 -2.35 -4.55 -2.70 -0.30 -4.20 4.60 -2.70 8.60 0.60 1.60 2.10 3.35 5.55 6.50 6.25 5.75 6.95 7.20 6.95 14.55 0 4.80 -0.15 5.80 -1.15 7.90 -1.75 3.55 -3.95 5.05 -7.75 5.20 -2.30 0.15 -3.50 -0.10 -4.90 -0.85z"/>
  <path d="M267.80 450.20 c-0.15 -0.45 -0.30 -9.70 -0.30 -20.65 0 -14.75 -0.15 -20 -0.60 -20.45 -0.35 -0.35 -1.50 -0.60 -2.65 -0.60 -2.50 0 -3.25 -0.70 -3.25 -3 0 -3.05 -0.05 -3.05 9.80 -2.90 l8.95 0.15 0.45 1.40 c0.30 0.85 0.30 1.85 0 2.75 -0.40 1.15 -0.80 1.35 -2.70 1.50 -1.25 0.10 -2.50 0.40 -2.85 0.70 -0.50 0.40 -0.65 5 -0.65 20.60 0 14.95 -0.15 20.25 -0.60 20.70 -0.90 0.90 -5.25 0.75 -5.60 -0.20z"/>
  <path d="M289.50 450 c-1 -1 -1.05 -1.50 -0.90 -23.80 0.15 -21.90 0.20 -22.80 1.10 -23.50 0.70 -0.50 2.55 -0.70 6.60 -0.70 6.25 0 7.20 0.40 7.20 3.05 0 2.80 -0.75 3.45 -3.80 3.45 -4.85 0 -4.70 -0.25 -4.70 9.75 0 4.75 0.15 9 0.30 9.45 0.20 0.55 0.95 0.80 2.40 0.80 3.15 0 3.90 0.80 3.70 3.75 l-0.15 2.50 -2.55 0.30 c-1.45 0.20 -2.85 0.50 -3.15 0.65 -0.35 0.20 -0.55 2.05 -0.55 4.50 l0 4.20 3.70 0.20 c2.05 0.10 3.90 0.30 4.05 0.50 0.55 0.55 0.65 4.10 0.20 5.05 -0.40 0.75 -1.30 0.85 -6.45 0.85 -5.35 0 -6.10 -0.10 -7 -1z"/>
  <path d="M316.35 450.70 c-0.20 -0.20 -0.35 -10.80 -0.35 -23.50 l0 -23.15 1.30 -1 c1.95 -1.55 8.20 -1.50 11.15 0.10 4.25 2.20 7.05 8.95 7.05 16.85 0 5.20 -1 9.25 -3.30 13.35 l-1.70 3.10 1.55 6.55 c0.85 3.60 1.40 6.85 1.25 7.25 -0.20 0.55 -1.05 0.75 -3 0.75 l-2.75 0 -0.50 -1.85 c-0.30 -1.05 -0.75 -3 -1.05 -4.40 -0.85 -3.65 -1.55 -5.25 -2.30 -5.25 -1.15 0 -1.45 1.15 -1.70 6.25 l-0.25 5 -2.50 0.15 c-1.40 0.10 -2.70 0 -2.90 -0.20z m10 -20.35 c1.85 -1.70 2.90 -5.15 2.90 -9.85 0 -5.60 -0.50 -7.65 -2.35 -9.75 -1.70 -1.95 -3.55 -2.30 -4.40 -0.80 -0.70 1.30 -0.65 19.80 0.05 21.10 0.60 1.15 2.05 0.90 3.80 -0.70z"/>
  <path d="M346.25 450.40 c-0.15 -0.35 -0.20 -11.35 -0.15 -24.40 l0.15 -23.75 2.75 0 2.75 0 0 24.25 0 24.25 -2.65 0.15 c-1.80 0.10 -2.70 -0.05 -2.85 -0.50z"/>
  <path d="M361 449.45 c0 -0.85 0.45 -4.35 1 -7.85 3.75 -24 6 -37.20 6.50 -38.10 0.40 -0.75 1.05 -1 2.65 -1.05 5.10 -0.15 4.60 -1.30 7.30 15.80 2.90 18.10 3.65 22.90 4.35 27.10 0.40 2.55 0.65 4.85 0.45 5.15 -0.15 0.25 -1.45 0.50 -2.80 0.50 -2.85 0 -3.10 -0.35 -3.70 -5.15 -0.45 -3.40 -1.45 -4.35 -4.65 -4.35 -3 0 -4.35 1.45 -4.75 5.10 -0.55 4.35 -0.60 4.40 -3.65 4.40 -2.70 0 -2.70 0 -2.70 -1.55z m13.40 -16.50 c0.40 -1.05 -1.50 -16.25 -2.10 -16.80 -0.45 -0.45 -0.70 0.70 -1.80 8.50 -0.60 4.05 -0.90 7.80 -0.75 8.35 0.45 1.50 4.10 1.45 4.65 -0.05z"/>
  <path d="M499.50 373.50 c-17.80 -1.55 -33.25 -11.70 -40.85 -26.75 -5.50 -10.90 -6.90 -25.55 -3.60 -37.75 5.95 -22.20 27.95 -37.65 51.60 -36.30 21.20 1.25 37.25 11.70 45.25 29.55 3.10 6.95 3.85 10.95 3.85 21 -0.05 7.75 -0.20 9.60 -1.15 13.15 -2.90 10.70 -8.50 19.25 -17.10 26.20 -10.45 8.40 -23.50 12.15 -38 10.90z m13.60 -32.60 c7.75 -3.60 12.10 -11.95 10.85 -20.90 -1.10 -7.50 -6.05 -13.25 -13.35 -15.50 -14.15 -4.40 -27.45 7.10 -25.15 21.80 1.15 7.55 5.40 12.60 13 15.50 1.20 0.45 3.50 0.65 6.80 0.55 4.15 -0.10 5.50 -0.35 7.85 -1.45z"/>
  <path d="M67.50 373 c-10.35 -2.20 -14.10 -3.60 -19.30 -7.35 -6.75 -4.75 -10.75 -11.10 -13.35 -21.05 -0.90 -3.60 -1 -5.90 -1.20 -34.35 -0.20 -28.60 -0.15 -30.60 0.70 -32.20 1.85 -3.60 2.55 -3.80 13.85 -3.95 11.30 -0.20 13.35 0.10 15.55 2.40 l1.50 1.55 0.25 27.85 0.25 27.85 1.50 2.75 c2.20 4 4.95 5.70 9.65 5.95 6.45 0.30 10.35 -1.65 12.65 -6.30 l1.20 -2.40 0.25 -27.50 c0.25 -25.20 0.30 -27.65 1.15 -28.90 1.95 -3 2.50 -3.10 14.90 -3.10 10.70 0 11.45 0.05 12.80 1.05 0.75 0.55 1.80 1.80 2.30 2.75 0.80 1.60 0.85 3.75 0.70 32.45 l-0.15 30.75 -1.40 4.75 c-2.75 9.35 -7 15.55 -13.55 19.95 -4.05 2.75 -9.90 5.15 -15.25 6.30 -4.40 1 -21.50 1.45 -25 0.75z"/>
  <path d="M139.15 371.40 c-0.60 -0.35 -1.60 -1.30 -2.25 -2.15 l-1.15 -1.50 -0.15 -44 c-0.10 -41.15 -0.05 -44.10 0.75 -45.70 0.50 -0.95 1.55 -2.20 2.30 -2.75 1.40 -1.05 1.95 -1.05 23 -1 22.15 0.05 25 0.20 33 2.20 10.65 2.65 17.45 8.80 19.35 17.55 0.80 3.60 0.40 12.40 -0.70 15.45 -1.05 2.95 -5.20 8 -7.75 9.40 -1.15 0.65 -2.05 1.35 -2.05 1.55 0 0.20 1.50 1.20 3.30 2.30 4.45 2.55 5.80 3.75 7.90 7 2.70 4.05 3.95 9.30 3.55 15 -1 14.95 -8.50 22.65 -25.50 26.10 -5.40 1.05 -51.85 1.55 -53.60 0.55z m42.45 -24.60 c3 -1.30 4.15 -3 4.15 -6.30 0 -3.30 -0.75 -4.45 -3.85 -6.05 -1.55 -0.80 -2.95 -0.95 -8.15 -0.95 l-6.25 0 0 7.35 0 7.30 6.20 -0.35 c3.40 -0.15 6.95 -0.65 7.90 -1z m-3 -36.60 c3.45 -1.80 4.70 -5.25 3.05 -8.55 -1.35 -2.80 -3.90 -3.95 -9.50 -4.35 l-4.60 -0.30 -0.15 7.05 c-0.10 3.85 -0.05 7.15 0.10 7.30 0.55 0.60 9.55 -0.35 11.10 -1.15z"/>
  <path d="M231.15 371.40 c-0.60 -0.35 -1.60 -1.30 -2.25 -2.15 l-1.15 -1.50 -0.15 -44 c-0.10 -41.15 -0.05 -44.10 0.75 -45.70 0.50 -0.95 1.55 -2.20 2.30 -2.75 1.40 -1.05 1.95 -1.05 23 -1 22.15 0.05 25 0.20 33 2.20 10.65 2.65 17.45 8.80 19.35 17.55 0.80 3.60 0.40 12.40 -0.70 15.45 -1.05 2.95 -5.20 8 -7.75 9.40 -1.15 0.65 -2.05 1.35 -2.05 1.55 0 0.20 1.50 1.20 3.30 2.30 4.45 2.55 5.80 3.75 7.90 7 2.70 4.05 3.95 9.30 3.55 15 -1 14.95 -8.50 22.65 -25.50 26.10 -5.40 1.05 -51.85 1.55 -53.60 0.55z m42.45 -24.60 c3 -1.30 4.15 -3 4.15 -6.30 0 -3.30 -0.75 -4.45 -3.85 -6.05 -1.55 -0.80 -2.95 -0.95 -8.15 -0.95 l-6.25 0 0 7.35 0 7.30 6.20 -0.35 c3.40 -0.15 6.95 -0.65 7.90 -1z m-3 -36.60 c3.45 -1.80 4.70 -5.25 3.05 -8.55 -1.35 -2.80 -3.90 -3.95 -9.50 -4.35 l-4.60 -0.30 -0.15 7.05 c-0.10 3.85 -0.05 7.15 0.10 7.30 0.55 0.60 9.55 -0.35 11.10 -1.15z"/>
  <path d="M323.40 371.35 c-0.75 -0.35 -1.85 -1.25 -2.50 -2.10 l-1.15 -1.50 -0.15 -44 c-0.10 -41.15 -0.05 -44.10 0.75 -45.70 1.85 -3.60 2.55 -3.80 13.85 -3.95 11.30 -0.20 13.35 0.10 15.55 2.40 l1.50 1.55 0.15 44.35 c0.10 41.50 0.05 44.45 -0.75 46.10 -1.60 3.20 -3 3.50 -15.15 3.50 -7.25 -0.05 -11.20 -0.25 -12.10 -0.65z"/>
  <path d="M368.40 371.35 c-0.75 -0.35 -1.85 -1.25 -2.50 -2.10 l-1.15 -1.50 -0.15 -44 c-0.10 -41.15 -0.05 -44.10 0.75 -45.70 0.50 -0.95 1.55 -2.20 2.30 -2.75 1.40 -1.05 1.95 -1.05 23.25 -1 18.35 0 22.60 0.15 26.40 0.85 17.95 3.35 27.80 13.25 29.70 29.90 0.70 5.95 0.25 11.50 -1.30 17.10 -1.45 5.25 -3.40 8.60 -7.15 12.50 -7.25 7.55 -17.70 10.85 -34.25 10.85 l-7.80 0 0 10.65 c0 16.10 0.25 15.85 -16 15.85 -7.25 -0.05 -11.20 -0.25 -12.10 -0.65z m42.45 -53.55 c3.80 -1.95 5.40 -7.90 3.15 -11.55 -1.85 -2.95 -3.95 -3.70 -11.10 -3.85 l-6.15 -0.15 -0.15 8.45 -0.10 8.45 6.40 -0.25 c4.50 -0.20 6.90 -0.50 7.95 -1.10z"/>
  <path d="M325 264.60 c-2.30 -1.10 -11.75 -14.45 -12.25 -17.20 -0.75 -4.15 1.10 -4.90 11.95 -4.90 8.75 0.05 11.40 0.55 12.95 2.60 1.15 1.50 6.60 13.15 7.05 15.10 0.50 2.05 -0.50 4.15 -2.30 4.75 -0.85 0.30 -4.70 0.55 -8.60 0.55 -5.70 0 -7.40 -0.15 -8.80 -0.90z"/>
  <path d="M495.25 264.90 c-2.25 -0.80 -2.65 -1.25 -7.85 -9 -5.55 -8.20 -6.05 -9.60 -4.20 -11.70 l1.20 -1.45 9.95 0 c12.55 0 11.85 -0.35 16.45 9.15 3.50 7.30 4 8.85 3.50 10.85 -0.55 2.20 -2.80 2.75 -10.65 2.70 -3.80 0 -7.55 -0.25 -8.40 -0.55z"/>
  <path d="M247.25 226.45 c-5.50 -1.60 -10.45 -4.20 -13.70 -7.25 -4.90 -4.50 -5.70 -8.55 -2.85 -14.15 2.75 -5.50 7.70 -10.60 19.20 -19.70 5.75 -4.50 8.25 -7 13.95 -13.60 16.45 -19.05 23 -37.90 17.30 -49.55 -0.65 -1.40 -1.70 -3.15 -2.30 -3.90 l-1.10 -1.35 0.15 6.30 c0.30 11.50 -2.50 20.45 -10 31.65 -7.60 11.30 -17.05 19.65 -30.45 26.80 -11 5.90 -25.15 8.70 -35.70 7.10 -15.55 -2.35 -27.10 -11.30 -34.40 -26.70 -3 -6.40 -2.75 -8.85 1.15 -10.50 3.15 -1.35 9.30 -1.55 26.50 -0.75 30.60 1.35 43 -0.10 52.05 -6.15 5.85 -3.90 8.65 -7.90 10.50 -15.10 1 -3.95 1.25 -8.85 0.50 -10.05 -0.60 -0.95 -1.80 -0.05 -6.15 4.65 -12.60 13.70 -28.05 19.55 -46.40 17.55 -10.45 -1.10 -17.80 -3.15 -26.75 -7.55 -6.05 -2.90 -9.85 -5.90 -13.50 -10.70 -5 -6.50 -7 -13.25 -6.65 -22.15 0.40 -8.65 2.50 -13.05 7.35 -15.25 2.70 -1.25 2.90 -1.25 7.30 -0.70 5.90 0.75 11.65 2.95 24 9.20 15 7.55 23.90 10.15 36.30 10.75 6.20 0.30 13.45 -0.40 15 -1.40 0.60 -0.40 0.55 -0.60 -0.25 -1.20 -1.40 -1.10 -4.75 -1.90 -18.80 -4.75 -19.85 -3.95 -24.50 -5.20 -30.25 -8.15 -3.50 -1.85 -6.05 -3.60 -8.60 -6 -4.40 -4.20 -6.35 -7.15 -7.40 -11.25 -1 -3.90 -0.50 -5.80 2.20 -8.25 4.30 -3.90 13 -4.65 24.80 -2.15 13.75 2.90 30.35 12.80 48.40 28.95 2.15 1.90 3.95 3.40 4.05 3.30 0.10 -0.10 -0.30 -2.45 -0.95 -5.25 -2.15 -9.50 -2.95 -16.45 -2.95 -25.95 -0.05 -7.90 0.10 -9.50 1.10 -13.25 1.70 -6.20 3.20 -9.20 6.30 -12.30 3.90 -3.85 6.45 -4.90 12.05 -4.95 4.10 0 4.80 0.15 7.85 1.65 2.75 1.35 3.65 2.10 5.20 4.45 2.40 3.65 4.05 7.70 4.50 10.95 0.60 4.85 -1.95 13.30 -7.60 25.30 -4.25 8.95 -5.70 13.90 -5.70 19.40 0 3.30 0.20 4.30 1.55 6.90 1.80 3.65 5.15 6.80 10.45 9.90 4.05 2.40 6.50 2.85 6.50 1.25 0 -0.50 -1 -3.70 -2.20 -7.15 -3.45 -9.70 -4.45 -14.90 -4.45 -23.15 0.05 -14.85 4.95 -27.15 16.20 -40.55 5.30 -6.35 8 -8.95 12.25 -11.70 7.05 -4.60 11.05 -6.10 18.30 -6.80 6.05 -0.55 14.75 1.70 20.50 5.40 3.30 2.10 7.10 6.35 7.80 8.85 1.90 6.30 -4.45 14.90 -20.45 27.65 -15 12 -24.15 23.70 -28.10 36.15 -1.85 5.70 -2.10 7.25 -1.20 7.25 1.75 0 4.10 -2.95 15.90 -19.75 10.15 -14.45 15.25 -19.95 23.10 -24.60 11.10 -6.65 21.90 -3.85 24.35 6.30 1.45 6.15 -2.70 15.70 -10.10 23.10 -3 3 -9.15 7.65 -13.10 9.95 -1.55 0.85 -2.80 1.65 -2.80 1.75 0 0.20 6.25 -1.80 16.50 -5.30 21.50 -7.45 31.60 -9.50 41.15 -8.40 11.25 1.25 17.30 8.75 17.35 21.60 0 6 -1.95 8.55 -8.15 10.45 -3.30 1.05 -4.55 1.15 -14.60 1.10 -6.05 0 -17.20 -0.30 -24.75 -0.70 -30.40 -1.45 -43.55 0.85 -52.85 9.20 -3.70 3.35 -7.15 11.15 -7.15 16.20 0 1.95 1 5.60 1.50 5.60 0.20 0 1.80 -2.10 3.60 -4.60 5.90 -8.40 9.55 -11.70 16.65 -15.25 5.75 -2.85 8.65 -3.40 17.75 -3.35 8.80 0.05 12.40 0.60 21.55 3.50 5.40 1.70 13.55 5.50 17.90 8.40 6.55 4.40 13.35 12.65 15.60 19.05 1.15 3.30 1.20 5.25 0.20 8.65 -2.85 9.60 -18.65 9.35 -40.20 -0.70 -9.40 -4.40 -24.05 -7.65 -38 -8.50 -5.90 -0.35 -6.90 0 -5.20 1.90 1.85 2.15 20.50 10.25 35.40 15.40 12.15 4.20 17.25 7.05 22.60 12.65 4 4.25 5.75 7.45 6.05 11.30 0.75 8.95 -10.40 12.30 -28.15 8.45 -8.75 -1.85 -29.30 -10.60 -36.70 -15.60 -1.45 -1 -2.70 -1.80 -2.80 -1.80 -0.05 0 -0.25 1.65 -0.40 3.65 -0.95 11 -6.65 19.95 -15.45 24.10 -5.80 2.75 -13.15 3.35 -17.70 1.45 -2.45 -1 -4.70 -3.90 -4.70 -6 0 -3.35 2.40 -9.25 6 -14.45 6.65 -9.85 8.35 -15.25 7.85 -24.50 -0.50 -8.80 -5.05 -26.40 -9.40 -36.60 l-0.95 -2.25 -1.65 1 c-2 1.25 -3 3.25 -3 5.85 0 1.10 1.25 6.40 2.80 11.75 3.40 11.70 4.10 17 3.35 24.15 -1.30 11.75 -7 22.80 -17 32.85 -4.90 4.90 -10.55 8.50 -16.45 10.40 -5.45 1.75 -13.45 2 -18.30 0.55z"/>
 </g>
</svg>