<?xml version="1.0" encoding="utf-8"?>
<svg id="Icons" height="58px" viewBox="0 0 46 58" width="46px" xmlns="http://www.w3.org/2000/svg">
  <defs/>
  <path d="M 16.924 8.328 C 16.615 8.328 16.323 8.185 16.134 7.942 L 11.224 1.632 C 10.738 1.035 11.08 0.135 11.84 0.013 C 12.208 -0.046 12.579 0.104 12.802 0.404 L 17.713 6.718 C 18.186 7.325 17.825 8.216 17.062 8.323 C 17.017 8.329 16.971 8.332 16.925 8.333 L 16.924 8.328 Z" fill="#1f1f2b"/>
  <path d="M 29.102 8.328 C 28.332 8.325 27.853 7.49 28.241 6.825 C 28.262 6.787 28.286 6.752 28.313 6.718 L 33.223 0.409 C 33.709 -0.188 34.659 -0.035 34.933 0.684 C 35.054 1.003 35.004 1.362 34.801 1.637 L 29.891 7.947 C 29.7 8.188 29.409 8.329 29.102 8.328 Z" fill="#1f1f2b"/>
  <path d="M 34.933 17.388 C 34.984 16.933 35.011 16.475 35.013 16.018 C 35.013 6.78 25.013 1.006 17.013 5.625 C 13.3 7.769 11.013 11.73 11.013 16.018 C 11.011 16.462 11.034 16.906 11.083 17.348 L 34.933 17.388 Z" fill="#2b2b3a"/>
  <path d="M 9.993 53.188 C 17.478 59.627 28.547 59.627 36.033 53.188 L 23.013 29.018 L 9.993 53.188 Z" fill="#2b2b3a"/>
  <path d="M 45.985 35.864 C 46.324 42.462 43.798 48.886 39.057 53.488 C 38.511 54.028 37.673 54.143 37.003 53.769 C 32.779 51.397 25.64 45.669 23.013 33.185 C 20.386 45.671 13.248 51.397 9.023 53.769 C 8.352 54.143 7.515 54.029 6.97 53.489 C -5.717 41.138 -0.277 19.686 16.762 14.874 C 30.984 10.857 45.249 21.104 45.985 35.864 Z" fill="#d84452"/>
  <g fill="#2b2b3a" transform="matrix(1, 0, 0, 1, -6.988323, -0.982769)">
    <circle cx="17" cy="43" r="3"/>
    <circle cx="18.5" cy="30.5" r="2.5"/>
    <circle cx="43" cy="43" r="3"/>
    <circle cx="41.5" cy="30.5" r="2.5"/>
    <circle cx="30" cy="24" r="3"/>
  </g>
</svg>