<?xml version="1.0" ?><svg id="Icons" viewBox="0 0 60 60" xmlns="http://www.w3.org/2000/svg"><defs><style>.cls-1{fill:#8ec140;}.cls-2{fill:#738e43;}</style></defs><path class="cls-1" d="M18.837,56.9c-1.279-12-8.72-30.855-17.476-41.893a1.614,1.614,0,0,1,.089-2.136l2.056-2.122a1.71,1.71,0,0,1,2.631-.2C15.837,22.031,21,37,22,42a31.841,31.841,0,0,1,4.433-10.179c-1.674-4.949-5.444-19.885,7-27.62,7.911-4.923,19.8-2.989,24.7-1.87a1.105,1.105,0,0,1,.524,1.87c-1.342,1.311-3.349,3.906-4.78,8.906-2.556,8.906-2.973,12.423-6.658,15.674-5.41,4.772-15.068,4.694-15.068,4.694-2.918,3.881-6.644,14.97-8.749,23.753A2.318,2.318,0,0,1,21.151,59h0A2.329,2.329,0,0,1,18.837,56.9Z"/><path class="cls-2" d="M47.7,10.62a73.488,73.488,0,0,0-21.27,21.2c-.23-.67-.49-1.52-.74-2.51A74.549,74.549,0,0,1,46.63,8.93a1.013,1.013,0,0,1,1.38.31A.992.992,0,0,1,47.7,10.62Z"/></svg>