<?xml version="1.0" encoding="utf-8"?>
<svg version="1.0" width="386pt" height="385pt" viewBox="0 0 386 385" preserveAspectRatio="xMidYMid meet" xmlns="http://www.w3.org/2000/svg">
  <g transform="translate(0.000000,522.000000) scale(0.100000,-0.100000)" fill="#000000" stroke="none">
    <path d="M 1662.586 5201.439 C 1154.586 5130.439 683.586 4850.439 383.586 4439.439 C 41.586 3973.439 -72.414 3401.439 63.586 2838.439 C 270.586 1984.439 1047.586 1376.439 1932.586 1376.439 C 2796.586 1376.439 3558.586 1957.439 3787.586 2790.439 C 3841.586 2988.439 3855.586 3116.439 3849.586 3351.439 C 3844.586 3586.439 3825.586 3699.439 3756.586 3906.439 C 3607.586 4354.439 3314.586 4713.439 2897.586 4961.439 C 2699.586 5079.439 2444.586 5167.439 2202.586 5201.439 C 2073.586 5219.439 1793.586 5219.439 1662.586 5201.439 Z M 3136.586 4458.439 C 3168.586 4446.439 3197.586 4435.439 3199.586 4432.439 C 3202.586 4430.439 3198.586 4417.439 3191.586 4404.439 C 3183.586 4390.439 3175.586 4318.439 3171.586 4216.439 C 3156.586 3872.439 3076.586 3706.439 2878.586 3611.439 C 2788.586 3568.439 2704.586 3547.439 2591.586 3538.439 L 2501.586 3531.439 L 2466.586 3451.439 C 2331.586 3141.439 2184.586 2564.439 2113.586 2066.439 L 2097.586 1951.439 L 1961.586 1948.439 L 1826.586 1945.439 L 1804.586 2148.439 C 1745.586 2677.439 1620.586 3131.439 1410.586 3576.439 C 1287.586 3836.439 1089.586 4144.439 936.586 4309.439 C 912.586 4335.439 892.586 4361.439 892.586 4365.439 C 892.586 4379.439 1020.586 4337.439 1097.586 4299.439 C 1422.586 4136.439 1677.586 3732.439 1828.586 3139.439 C 1871.586 2969.439 1922.586 2702.439 1922.586 2645.439 C 1922.586 2629.439 1927.586 2616.439 1932.586 2616.439 C 1938.586 2616.439 1942.586 2627.439 1942.586 2640.439 C 1942.586 2682.439 2000.586 2861.439 2057.586 2992.439 C 2176.586 3267.439 2390.586 3621.439 2645.586 3960.439 C 2727.586 4068.439 2732.586 4078.439 2706.586 4072.439 C 2624.586 4051.439 2525.586 3981.439 2443.586 3884.439 C 2392.586 3825.439 2279.586 3662.439 2269.586 3634.439 C 2256.586 3596.439 2247.586 3654.439 2247.586 3779.439 C 2247.586 3933.439 2256.586 3974.439 2314.586 4091.439 C 2408.586 4278.439 2621.586 4441.439 2822.586 4480.439 C 2836.586 4482.439 2899.586 4483.439 2962.586 4482.439 C 3049.586 4480.439 3091.586 4474.439 3136.586 4458.439 Z"/>
  </g>
</svg>