<?xml version="1.0" encoding="utf-8"?>
<!DOCTYPE svg PUBLIC "-//W3C//DTD SVG 1.0//EN" "http://www.w3.org/TR/2001/REC-SVG-20010904/DTD/svg10.dtd">
<svg version="1.0" xmlns="http://www.w3.org/2000/svg" width="864px" height="758px" viewBox="0 0 864 758" preserveAspectRatio="xMidYMid meet">
 <g fill="#6f4f45">
  <path d="M98.5 583 c-15 -2.4 -26.3 -7.6 -34.4 -15.9 -6.8 -6.8 -10.4 -13.4 -13.3 -23.8 -1.9 -7.2 -2.1 -10.9 -2.6 -50.1 -0.2 -23.2 -0.1 -43.9 0.3 -45.8 0.3 -2 1.7 -4.7 3 -6 2.4 -2.3 2.8 -2.4 19.8 -2.4 l17.4 0 2.7 2.6 2.6 2.7 0 37.8 c0 41.4 0.5 46.1 5.1 51.4 4.1 4.6 7.6 5.8 15.9 5.3 9.6 -0.5 15.1 -4.8 17 -13.4 0.5 -2.1 1 -20.9 1 -41.7 0 -38.6 0.2 -40.5 3.9 -43.4 1.1 -0.9 6.9 -1.2 18.8 -1.3 16.8 0 17.3 0.1 20 2.4 l2.8 2.4 0 45.9 c0 40 -0.3 46.7 -1.8 52.6 -5.1 20.2 -18.5 33.3 -39.6 38.8 -8.8 2.3 -29.4 3.3 -38.6 1.9z"/>
  <path d="M723.9 582.6 c-15.4 -3.3 -29.7 -11.2 -39.6 -22 -12.2 -13.4 -18.3 -28 -19.1 -46.2 -1.1 -24.6 8.1 -46.3 25.9 -61.1 7.1 -5.9 21.6 -12.8 30.9 -14.9 22.9 -4.9 48.8 0.7 65.7 14.3 16.6 13.3 25.9 31.7 27 53.3 1.9 35.8 -18.9 65.3 -52.9 75.1 -9.4 2.7 -28.5 3.4 -37.9 1.5z m30.2 -46.8 c9.9 -5.2 14.9 -13.9 14.9 -25.9 0 -8.4 -2.5 -14.6 -8.4 -20.5 -14 -14 -38.1 -10.1 -47.2 7.6 -1.1 2.2 -1.9 6.6 -2.2 11.8 -0.4 7.7 -0.3 8.7 2.8 14.8 2.3 4.7 4.5 7.5 7.8 10 6 4.3 8.9 5.2 18.4 5.3 6.8 0.1 8.3 -0.3 13.9 -3.1z"/>
  <path d="M205 580.8 c-1.9 -0.7 -4 -2.4 -4.7 -3.8 -1 -1.9 -1.3 -17.2 -1.3 -67.3 l0 -64.9 3 -3 3 -3 35.3 0.4 c31.9 0.4 35.9 0.7 42.9 2.6 18.3 5 27.1 13 29.8 27.3 2.9 15 -1.5 27.4 -12.3 34.5 l-4.5 3 5.5 2.8 c6.9 3.7 13.7 11.2 15.8 17.7 2.1 6.4 2.1 18 0 25.6 -4 14.3 -15.1 22.8 -35 26.9 -9.9 2 -72.5 3 -77.5 1.2z m60.1 -34.8 c2 -0.6 4.4 -1.9 5.3 -2.9 2.4 -2.6 3.1 -8.4 1.6 -12.2 -1.9 -4.5 -6.1 -5.9 -17.4 -5.9 l-9.5 0 -0.3 10.6 c-0.2 5.8 -0.1 10.8 0.1 11 0.9 0.8 16.7 0.4 20.2 -0.6z m-0.7 -55.9 c5.1 -4.8 4.3 -12.5 -1.6 -16.1 -2.5 -1.5 -5.1 -2 -10.5 -2 l-7.3 0 0 10.6 0 10.6 8.4 -0.3 c7.3 -0.4 8.8 -0.7 11 -2.8z"/>
  <path d="M340.3 581 c-6.6 -2.1 -6.3 1.4 -6.3 -71.1 l0 -65.6 2.7 -2.7 2.7 -2.8 35.6 0.4 c32.2 0.4 36.2 0.7 43.2 2.6 19.9 5.4 28.6 14.7 30.4 32.5 1.2 11.8 -3.7 23 -12.7 29.1 l-4.7 3.2 5.4 2.8 c6.1 3.2 11.2 8.5 14.5 14.8 1.7 3.2 2.4 6.5 2.7 13.4 1.1 23.8 -11.8 37.9 -38.8 42.4 -8.7 1.5 -70.5 2.3 -74.7 1z m62.8 -36.3 c5.6 -3.7 6.2 -12.2 1.3 -16.8 -2.3 -2.2 -3.5 -2.4 -14 -2.7 l-11.4 -0.4 0 11.2 0 11.2 10.8 -0.4 c8.1 -0.3 11.3 -0.8 13.3 -2.1z m-3.7 -54.6 c5.1 -4.8 4.3 -12.5 -1.6 -16.1 -2.6 -1.5 -5.1 -2 -11 -2 l-7.8 0 0 10.6 0 10.6 8.9 -0.4 c7.8 -0.3 9.3 -0.6 11.5 -2.7z"/>
  <path d="M475.3 580.9 c-6.6 -2 -6.3 1.5 -6.3 -71.2 l0 -65.8 2.6 -2.4 c2.6 -2.5 3 -2.5 20.1 -2.5 17.1 0 17.4 0 19.8 2.5 l2.5 2.4 0 66 0 66 -2.4 2.8 -2.4 2.8 -15.4 0.2 c-8.4 0.1 -16.7 -0.2 -18.5 -0.8z"/>
  <path d="M541 580.7 c-1.9 -0.6 -4 -2.3 -4.7 -3.7 -1 -1.9 -1.3 -17.2 -1.3 -67.3 l0 -64.9 3 -2.9 3 -3 35.2 0.3 c38.5 0.5 41 0.8 53.3 6.8 8.1 4 13.1 8.3 17.7 15.4 5.8 9 7.9 17 7.9 30.1 0 16.9 -4 27.4 -13.9 36.7 -10.2 9.6 -22.8 13.6 -45.4 14.5 l-14.7 0.6 -0.3 16.3 -0.3 16.4 -2.8 2.7 c-2.7 2.8 -2.8 2.8 -18 3 -10.1 0.2 -16.4 -0.1 -18.7 -1z m64.6 -80.1 c2.9 -2.9 3.4 -4.1 3.4 -8 0 -10.3 -4.6 -13.6 -19 -13.6 l-9 0 0 12.5 0 12.5 10.6 0 10.6 0 3.4 -3.4z"/>
  <path d="M476.1 423.7 c-1.3 -0.6 -6 -6.5 -10.4 -13 -7.3 -10.6 -8 -12 -7.1 -14.5 l0.9 -2.7 15.3 -0.3 c9.9 -0.2 16 0.1 17.3 0.9 2.1 1.1 12.9 22.4 12.9 25.4 0 0.8 -0.9 2.4 -2 3.5 -1.8 1.8 -3.3 2 -13.2 2 -7 0 -12.2 -0.5 -13.7 -1.3z"/>
  <path d="M725.1 423.6 c-2.7 -1.5 -18.1 -23.3 -18.1 -25.8 0 -4.1 2.4 -4.8 17.6 -4.8 8.6 0 15.4 0.4 16.6 1.1 2.3 1.2 12.8 22.2 12.8 25.6 0 4.1 -3.4 5.3 -15.5 5.3 -7.1 -0.1 -11.8 -0.5 -13.4 -1.4z"/>
 </g>
 <g fill="#698f03">
  <path d="M307.5 698.1 c-6.2 -4.2 -6.5 -5.9 -6.5 -34.4 0 -28.7 0.4 -31.2 6.2 -34.7 6.1 -3.7 14.5 -2.1 18.4 3.7 1.7 2.5 1.9 5.2 2.2 28.3 0.2 15.9 0 26.8 -0.7 29 -2.5 8.4 -12.8 12.7 -19.6 8.1z m9.7 -8.8 c1.6 -1.5 1.8 -3.6 1.8 -25.5 0 -14.6 -0.4 -24.7 -1 -25.9 -1.2 -2.1 -5 -2.5 -6.8 -0.7 -0.9 0.9 -1.2 8 -1.2 25.9 0 21.2 0.2 25 1.6 26.3 2 2 3.3 2 5.6 -0.1z"/>
  <path d="M353.3 698.9 c-5 -1.5 -8.2 -7.2 -9.8 -17.6 -0.6 -3.9 -0.4 -4.4 1.8 -5.4 4 -1.8 6.3 0.1 7.1 6 0.8 6.2 3.4 9.6 6.5 8.6 2.8 -0.8 4.1 -4.2 4.1 -10.3 0 -6.2 -2.3 -10 -9.3 -15.7 -7.5 -6.1 -10.1 -11 -10.2 -19.5 0 -7.6 2.2 -12.2 7.6 -15.8 8.2 -5.6 17.9 1.1 17.9 12.3 0 3.4 -0.1 3.5 -3.9 3.5 -3.7 0 -3.9 -0.1 -4.5 -3.9 -0.7 -4.6 -3.1 -6 -5.8 -3.3 -2.8 2.7 -3.3 8.3 -1.3 12.6 1 2.1 4.3 5.8 7.4 8.3 8.5 6.8 10.6 11 10.6 20.8 0 8.9 -2.2 15.4 -6 17.9 -3 2 -8.4 2.7 -12.2 1.5z"/>
  <path d="M391.8 668.3 l-0.3 -30.8 -3.8 -0.6 c-4.8 -0.8 -5.9 -1.9 -5.5 -5.5 l0.3 -2.9 13.5 0 13.5 0 0.3 3.4 c0.4 3.9 -0.9 5.1 -5.5 5.1 l-3.3 0 0 29.4 c0 16.2 -0.3 30.1 -0.6 31 -0.4 1.1 -1.9 1.6 -4.5 1.6 l-3.9 0 -0.2 -30.7z"/>
  <path d="M423.5 697.7 c-0.3 -0.6 -0.4 -16.5 -0.3 -35.2 l0.3 -34 10 0 10 0 0.3 2.8 c0.5 4.2 -1.3 5.7 -6.8 5.7 -3.4 0 -5 0.4 -5.4 1.6 -1.2 3 -0.7 25.9 0.6 27.2 0.7 0.7 2.9 1.2 5 1.2 3.7 0 3.8 0.1 3.8 3.9 0 4.2 -1.1 5.1 -6.1 5.1 -3.3 0 -4.2 2.1 -3.7 9.1 l0.3 4.4 5.2 0.3 c5.9 0.3 7.8 2.3 6.7 6.7 -0.6 2.5 -0.8 2.5 -10 2.5 -6.7 0 -9.6 -0.4 -9.9 -1.3z"/>
  <path d="M463 664.7 c0 -25.3 0.3 -34.6 1.2 -35.5 0.7 -0.7 4.2 -1.2 8.6 -1.2 7.3 0 7.5 0.1 11.2 3.8 5.3 5.3 7.4 12.6 6.8 24.6 -0.3 8 -0.8 9.9 -3.7 15.3 l-3.4 6.3 2.2 8.4 c3.1 12.4 3 12.8 -2.1 12.4 l-4.2 -0.3 -1.7 -7.3 c-0.9 -4.1 -2.1 -7.8 -2.7 -8.4 -2 -2 -3.2 0.4 -3.2 6.7 0 8.7 -0.4 9.5 -5.1 9.5 l-3.9 0 0 -34.3z m15.4 3.9 c7.5 -7.4 4.4 -32.6 -3.9 -31.4 -1.9 0.3 -2 1.1 -2.3 17.1 -0.2 16.3 -0.2 16.7 1.8 16.7 1.2 0 3.1 -1.1 4.4 -2.4z"/>
  <path d="M507 663.5 l0 -35.6 4.3 0.3 4.2 0.3 0 35 0 35 -4.2 0.3 -4.3 0.3 0 -35.6z"/>
  <path d="M529.7 698.2 c-0.6 -0.9 9.9 -67.7 10.9 -69.3 0.3 -0.5 2.5 -0.9 5 -0.9 3.7 0 4.6 0.4 5.4 2.3 0.8 2 11 64.4 11 67.5 0 0.7 -1.5 1.2 -4 1.2 -4.2 0 -4.1 0.3 -5.4 -7.9 -0.8 -4.7 -2.3 -6.1 -6.5 -6.1 -5.3 0 -6.5 1.3 -7.6 7.7 -1 5.7 -1.1 5.8 -4.7 6.1 -2 0.2 -3.9 -0.1 -4.1 -0.6z m18.7 -24.5 c1.7 -1.2 1.7 -1.9 0.1 -12.8 -2.5 -18.1 -2.9 -18.1 -5.5 -0.7 -1.7 11.2 -1.7 12.4 -0.2 13.6 2 1.5 3.4 1.5 5.6 -0.1z"/>
  <path d="M365 369.9 c-6.8 -1.2 -18.4 -6.5 -23.4 -10.9 -12.8 -11.3 -7.7 -24.5 17.6 -45.1 18.5 -15.1 28.7 -25.9 38.7 -40.7 5.7 -8.5 12.7 -23.3 14.7 -31.2 2.9 -11.4 0.8 -25 -4.8 -32.4 -1.3 -1.6 -1.4 -0.6 -1.5 9 -0.2 23.7 -10 44.3 -30.4 64 -13.6 13 -26.9 21.1 -44.4 27 -9.9 3.3 -12.3 3.8 -24 4.2 -10 0.3 -14.5 0.1 -19.5 -1.2 -19.2 -4.9 -34 -17.6 -43.6 -37.4 -4.4 -9.3 -4.3 -12.8 0.6 -15.7 3.3 -1.9 4.6 -2 27.5 -1.5 46 1 61 0.6 70.7 -1.8 22 -5.4 33 -17.2 34.5 -36.8 0.4 -4.7 0.2 -7.4 -0.5 -7.8 -0.7 -0.4 -4.9 3.1 -9.9 8.2 -10.1 10.1 -15.5 14 -25.6 18.7 -22.1 10.2 -53.8 8.3 -80.7 -4.8 -20.1 -9.7 -31.2 -28.3 -29.7 -49.7 0.8 -12.7 5.4 -20.2 13.4 -22 8.1 -1.9 18.8 1.3 40.3 12 26.3 13.1 40.6 17.2 60 17.2 12.1 -0.1 18.1 -1 18.7 -2.9 0.6 -1.7 -7 -3.7 -30.2 -8.3 -26.8 -5.3 -34.4 -7.3 -43 -11.9 -8.3 -4.3 -18.7 -14.1 -21.5 -20.2 -1.1 -2.4 -2 -6.4 -2 -8.8 0 -3.6 0.6 -4.9 3.3 -7.6 4.1 -4.1 8.9 -5.5 19.4 -5.5 26.9 0 53.6 13.5 90.4 45.8 l4.5 4 -2.2 -10.6 c-6.2 -29.4 -5.6 -51.1 1.7 -66 3.8 -7.8 9.7 -12.6 17.5 -14.2 17.2 -3.6 30.3 8.1 30.4 27.1 0 9.4 -1.3 13.9 -9.9 33.1 -8.2 18.5 -9.5 22.8 -8.9 31.2 0.5 8.9 4.2 14.5 13.4 20.8 8.3 5.6 13.4 7.2 13.4 4 0 -1.1 -1.2 -5 -2.6 -8.8 -6.8 -18.2 -8.6 -36.9 -5 -52.9 3.8 -17.2 15.7 -36.7 31.3 -51.5 12.9 -12.4 23.9 -17.3 38.8 -17.3 18.9 -0.1 38.4 12.2 38.5 24.3 0 8.9 -8.4 19.1 -30.7 37.3 -7.2 5.9 -15.9 13.7 -19.3 17.4 -12 13.1 -21.7 30.5 -23.6 42.2 -1.4 8.8 2.1 5.2 21.4 -21.9 17.8 -25.1 27.2 -35 38.5 -40.5 6.7 -3.3 8.9 -3.9 14.5 -3.9 8.2 0 12.1 1.9 16 7.6 2.3 3.6 2.7 5.2 2.7 11.3 0 6 -0.5 8.1 -3.4 14 -4.2 8.5 -15.2 19.9 -26.4 27.3 -4.3 2.9 -7.7 5.2 -7.5 5.2 0.2 0 9.8 -3.2 21.3 -7 25.8 -8.7 37.1 -11.7 48.7 -13 26 -3 39 7.5 39.2 31.7 0.1 6.6 -0.1 7.4 -2.9 10.3 -5.5 5.8 -10.7 6.6 -38.5 6 -13.5 -0.3 -35.7 -0.5 -49.5 -0.5 -22.4 0.1 -25.9 0.3 -33.9 2.3 -15.8 3.9 -26.5 12.5 -30.5 24.5 -2.6 7.7 -2.7 18.7 -0.1 18.7 0.4 0 2.6 -2.8 5 -6.2 8.8 -12.9 19.2 -21.4 30.5 -25.3 23.9 -8.1 65.2 2.3 85.8 21.5 20.9 19.6 22.2 40.8 2.7 43.9 -11.3 1.8 -24.9 -1.4 -46.5 -10.9 -11.5 -5 -25.5 -8.6 -44.6 -11.4 -16.6 -2.5 -22.1 -1.9 -19 1.8 2.6 3.1 26.7 13.4 54.1 23.1 19.8 7 31.8 15.1 37.2 25.1 5.7 10.5 4.4 17.5 -4 21.6 -4.1 2 -6.1 2.3 -16.2 2.2 -6.7 -0.1 -14.3 -0.8 -18.3 -1.8 -14 -3.3 -39 -14 -51.7 -22 l-5.5 -3.5 -1.3 7.5 c-3 17.9 -10.7 28.6 -24.5 34.2 -11.5 4.7 -25.1 3.1 -29.3 -3.3 -2.8 -4.3 0.7 -16.7 7.1 -25.1 12.4 -16.2 14.7 -30.4 9.1 -54.9 -2.8 -11.7 -10.6 -35.9 -12.3 -37.6 -0.5 -0.5 -2.1 0.2 -3.6 1.4 -4.5 3.6 -4.5 8 0.1 23.2 7 22.8 7.6 34.7 2.6 50.5 -5.7 18.2 -22.4 38.9 -37.7 46.6 -9.8 5 -21.5 7 -31.7 5.3z"/>
 </g>
</svg>