<svg id="Capa_1" enable-background="new 0 0 512.002 512.002" height="512" viewBox="0 0 512.002 512.002" width="512" xmlns="http://www.w3.org/2000/svg"><g><path d="m389.312 404.812-35.963-218.333c16.065-13.264 26.32-33.325 26.32-55.736v-31.363h-8.795c3.226-6.96 5.082-14.543 5.4-22.374l1.757-43.269-43.269 1.756c-12.911.524-25.151 5.229-35.029 13.365-2.204-3.316-4.664-6.485-7.403-9.455l-36.329-39.403-36.331 39.405c-2.738 2.97-5.198 6.139-7.403 9.454-9.877-8.136-22.118-12.841-35.029-13.365l-43.269-1.756 1.757 43.269c.318 7.831 2.174 15.414 5.4 22.374h-8.795v31.362c0 22.411 10.256 42.472 26.32 55.736l-35.963 218.333c-3.586 21.769 2.546 43.901 16.822 60.722s35.118 26.468 57.181 26.468h13.776c.134.146.258.298.394.442 11.65 12.429 28.103 19.558 45.139 19.558s33.488-7.128 45.139-19.558c.135-.144.26-.297.394-.442h13.776c22.062 0 42.904-9.647 57.181-26.468s20.408-38.952 16.822-60.722zm-40.502-61.307-35.42 35.419-11.387-175.923h5.407c6.172 0 12.164-.781 17.887-2.244zm-32.097-269.593c5.15-5.149 11.992-8.147 19.268-8.442l10.757-.437-.437 10.757c-.296 7.275-3.294 14.117-8.442 19.266-1.715 1.715-3.628 3.159-5.682 4.325h-11.104c-3.137 0-6.245.199-9.307.59.392-3.063.59-6.169.59-9.308 0-3.296-.227-6.564-.646-9.793 1.262-2.542 2.937-4.892 5.003-6.958zm-74.986-14.172 14.274-15.482 14.274 15.482c7.79 8.449 12.08 19.431 12.08 30.923 0 11.288-4.396 21.9-12.378 29.882l21.213 21.213c7.982-7.981 18.594-12.377 29.882-12.377h28.598v1.362c0 23.302-18.958 42.259-42.26 42.259h-37.411l12.657 195.559-26.655 26.655-26.655-26.655 12.657-195.559h-37.411c-23.302 0-42.26-18.958-42.26-42.259v-1.362h28.598c11.288 0 21.899 4.396 29.882 12.377l21.213-21.213c-7.982-7.982-12.378-18.595-12.378-29.882-.001-11.492 4.29-22.474 12.08-30.923zm-67.582 35.316c-5.149-5.149-8.147-11.991-8.443-19.266l-.437-10.757 10.757.437c7.275.295 14.117 3.293 19.267 8.441 2.066 2.066 3.742 4.417 5.005 6.959-.419 3.228-.646 6.496-.646 9.792 0 3.138.198 6.245.59 9.308-3.062-.391-6.17-.59-9.307-.59h-11.104c-2.055-1.166-3.968-2.609-5.682-4.324zm30.447 107.946h5.407l-11.387 175.923-35.42-35.419 23.513-142.747c5.723 1.462 11.715 2.243 17.887 2.243zm-42.208 243.119c-8.565-10.092-12.244-23.372-10.093-36.433l4.901-29.757 38.84 38.84-1.771 27.366c-.345 5.332.015 10.652 1.029 15.826-12.714-.393-24.643-6.107-32.906-15.842zm116.868 25.807c-6.09 6.497-14.347 10.074-23.251 10.074s-17.161-3.578-23.251-10.074c-6.089-6.496-9.126-14.967-8.551-23.853l2.567-39.668 29.234 29.234 29.234-29.234 2.567 39.668c.577 8.886-2.46 17.357-8.549 23.853zm70.366-25.807c-8.263 9.735-20.192 15.449-32.906 15.843 1.014-5.174 1.374-10.494 1.029-15.826l-1.771-27.366 38.84-38.84 4.901 29.757c2.151 13.061-1.527 26.34-10.093 36.432z"/></g></svg>