<svg id="Capa_1" enable-background="new 0 0 512 512" height="512" viewBox="0 0 512 512" width="512" xmlns="http://www.w3.org/2000/svg"><g><path d="m512 54c0-29.776-24.225-54-54-54v30c13.233 0 24 10.767 24 24v11.646c-7.235-3.606-15.382-5.646-24-5.646v30c9.579 0 17.862 5.643 21.708 13.777-6.342 21.05-25.208 36.711-47.9 38.301 3.546-12.063 5.458-24.82 5.458-38.015v-41.835h-184.848c-16.327 0-31.631 4.454-44.771 12.202-55.036 3.265-106.558 26.922-145.483 66.921-40.189 41.295-62.265 95.3-62.164 152.065.104 58.409 22.93 113.306 64.271 154.577 41.346 41.275 96.291 64.007 154.714 64.007h179.281v-16c0-24.061-11.543-45.476-29.382-59 17.839-13.524 29.382-34.939 29.382-59v-16h-179.637c-37.516 0-68.26-30.049-68.534-66.985-.255-34.33 25.235-63.129 58.78-67.441 12.862 7.309 27.722 11.489 43.543 11.489h49.848c14.815 0 29.077-2.406 42.424-6.835h83.31c46.317 0 84-37.682 84-84v-34.228c0-3.941-.436-7.78-1.241-11.482.801-4.648 1.241-9.417 1.241-14.29zm-437.424 118.285 64.461 64.462c-9.225 12.539-15.507 27.349-17.882 43.379h-90.704c2.746-39.594 18.094-77.106 44.125-107.841zm-43.802 137.841h90.59c2.595 15.801 9.06 30.349 18.39 42.662l-63.783 63.782c-26.009-30.013-41.676-66.961-45.197-106.444zm250.226 171.874v-30h43.266c19.369 0 35.855 12.582 41.717 30zm84.983-90c-5.861 17.418-22.348 30-41.717 30h-43.266v-30zm-147.354 0h32.371v90h-32.016c-45.02 0-87.64-15.653-121.655-44.363l63.96-63.959c16.183 11.52 35.998 18.322 57.34 18.322zm-58.322-176.409-64.642-64.643c22.791-19.794 49.554-33.784 78.318-41.08-6.373 12.209-9.983 26.079-9.983 40.778 0 19.925 6.627 38.329 17.79 53.131-7.698 3.037-14.903 7.027-21.483 11.814zm92.111-6.528c-32.212 0-58.418-26.206-58.418-58.417 0-32.212 26.206-58.418 58.418-58.418h154.848v11.835c0 57.897-47.103 105-105 105zm175.582-6.835h-33.16c9.316-8.791 17.383-18.89 23.91-30h9.25c20.454 0 39.217-7.357 53.802-19.553-2.27 27.701-25.525 49.553-53.802 49.553z"/><path d="m310.5 122.228h30v30h-30z"/></g></svg>