<svg id="Capa_1" enable-background="new 0 0 512 512" height="512" viewBox="0 0 512 512" width="512" xmlns="http://www.w3.org/2000/svg"><g><path d="m512 207.381c0-36.819-14.579-87.203-37.141-128.357-27.936-50.96-62.868-79.024-98.359-79.024s-70.423 28.064-98.359 79.023c-22.562 41.155-37.141 91.539-37.141 128.358 0 8.154.741 16.135 2.13 23.895-12.121-.935-23.571-5.392-33.028-13.02-15.156-12.226-34.246-18.958-53.751-18.958-29.975 0-58.165 15.996-73.568 41.744-10.049 16.799-24.24 30.99-41.039 41.039-25.748 15.403-41.744 43.593-41.744 73.567 0 29.975 15.996 58.165 41.745 73.568 16.799 10.049 30.99 24.24 41.039 41.039 15.403 25.749 43.592 41.745 73.568 41.745 19.506 0 38.597-6.734 53.754-18.961 12.359-9.97 27.791-14.577 43.448-12.972 4.248.436 8.579.656 12.873.656 33.109 0 64.316-12.81 87.874-36.07 23.536-23.238 36.743-54.237 37.189-87.285.069-5.125-.179-10.211-.73-15.237 68.036-7.148 121.24-64.851 121.24-134.75zm-150.508 149.582c-.339 25.117-10.379 48.678-28.27 66.343-17.907 17.68-41.629 27.417-66.796 27.417-3.276 0-6.577-.168-9.813-.5-23.58-2.418-46.786 4.497-65.343 19.466-9.984 8.054-22.059 12.311-34.918 12.311-19.777 0-37.655-10.148-47.823-27.146-12.583-21.033-30.351-38.801-51.384-51.383-16.997-10.168-27.145-28.046-27.145-47.823s10.148-37.654 27.146-47.823c21.033-12.582 38.801-30.35 51.383-51.383 10.168-16.997 28.046-27.145 47.823-27.145 12.859 0 24.933 4.256 34.917 12.309 18.437 14.872 41.799 21.769 65.782 19.423 3.27-.319 6.607-.459 9.904-.455 25.188.137 49 10.343 67.051 28.739 18.064 18.412 27.826 42.437 27.486 67.65zm22.263-44.336c-6.083-16.318-15.647-31.391-28.338-44.323-22.143-22.567-50.98-35.742-81.793-37.519-1.713-7.531-2.625-15.362-2.625-23.404 0-31.657 13.441-77.444 33.447-113.936 22.105-40.32 48.367-63.445 72.054-63.445s49.949 23.125 72.053 63.445c20.006 36.492 33.447 82.279 33.447 113.936 0 55.734-43.444 101.505-98.245 105.246z"/><path d="m156.352 287.044c-37.829 0-68.604 30.775-68.604 68.604s30.776 68.604 68.604 68.604 68.604-30.776 68.604-68.604-30.776-68.604-68.604-68.604zm0 107.209c-21.287 0-38.604-17.318-38.604-38.604s17.318-38.604 38.604-38.604 38.604 17.318 38.604 38.604-17.318 38.604-38.604 38.604z"/></g></svg>