<svg id="Capa_1" enable-background="new 0 0 512.454 512.454" height="512" viewBox="0 0 512.454 512.454" width="512" xmlns="http://www.w3.org/2000/svg"><g><path d="m506.192 247.489c-.971-1.355-24.232-33.572-63.096-66.897-52.169-44.734-107.796-69.877-160.866-72.712-64.562-3.447-125.711 24.743-181.93 83.825l-100.3-70v82.521c0 20.961 9.675 39.705 24.795 52-15.12 12.296-24.795 31.04-24.795 52.001v82.521l100.3-69.999c53.156 55.862 110.714 84.109 171.4 84.106 3.497 0 7.013-.094 10.53-.282 53.07-2.834 108.697-27.978 160.866-72.712 38.864-33.325 62.125-65.542 63.096-66.897l6.262-8.738zm-225.688 127.134c-58.448 3.079-114.579-25.07-166.855-83.657l-8.862-9.932-74.787 52.194v-25.001c0-20.402 16.598-37 37-37v-30c-20.402 0-37-16.598-37-37v-25.001l74.787 52.194 8.862-9.932c52.276-58.588 108.422-86.732 166.855-83.657 6.99.368 14.858 1.254 23.496 2.928v230.937c-8.638 1.673-16.506 2.559-23.496 2.927zm142.481-65.036c-32.823 28.033-63.055 44.419-88.985 53.766v-214.251c25.93 9.347 56.162 25.733 88.985 53.766 24.636 21.041 42.821 41.978 52.035 53.36-9.217 11.384-27.401 32.32-52.035 53.359z"/><path d="m364 207.227h30v30h-30z"/><path d="m212.08 211.227h-6.08c-24.813 0-45 20.187-45 45s20.187 45 45 45h6.08c6.192 17.459 22.865 30 42.42 30h20v-30h-20c-8.271 0-15-6.729-15-15s6.729-15 15-15h20v-30h-20c-8.271 0-15-6.729-15-15s6.729-15 15-15h20v-30h-20c-19.555 0-36.228 12.541-42.42 30zm-21.08 45c0-8.271 6.729-15 15-15h6.08c1.982 5.587 5.034 10.67 8.915 15-3.881 4.33-6.933 9.413-8.915 15h-6.08c-8.271 0-15-6.729-15-15z"/></g></svg>