<svg id="Capa_1" enable-background="new 0 0 511.998 511.998" height="512" viewBox="0 0 511.998 511.998" width="512" xmlns="http://www.w3.org/2000/svg"><g><path d="m477.318 232.042c2.986-2.721 5.814-5.61 8.459-8.688 32.232-37.505 25.801-87.052 25.512-89.143l-1.557-11.244-11.244-1.557c-2.09-.289-51.637-6.721-89.143 25.511-3.078 2.645-5.967 5.472-8.688 8.459-6.516-11.104-12.769-18.083-13.167-18.524l-10.579-11.685-192.184 192.142.026-221.743-15.747.783c-.593.029-9.949.543-22.409 3.787.187-4.036.144-8.077-.162-12.124-3.728-49.312-43.311-79.799-44.994-81.073l-9.051-6.85-9.051 6.849c-1.683 1.274-41.266 31.761-44.994 81.073-.306 4.047-.35 8.088-.162 12.124-12.459-3.244-21.816-3.758-22.409-3.787l-15.744-.782-.03 323.973c0 50.928 41.433 92.361 92.361 92.361 23.056 0 44.165-8.492 60.365-22.512 17.283 14.962 38.829 22.468 60.389 22.468 23.652 0 47.303-9.003 65.309-27.009l229.105-229.061-11.688-10.581c-.44-.399-7.42-6.651-18.523-13.167zm-234.158 136.263c-.806-6.401-2.351-12.942-4.663-19.598-4.002-11.524-9.662-21.347-14.38-28.356l64.311-64.296c2.862 4.81 5.834 10.694 8.025 17.219 7.058 21.027 3.028 38.709-12.321 54.058zm185.54-198.46c17.505-15.161 39.689-18.56 53.273-19.057-.456 13.479-3.812 35.398-18.949 53.012-5.098 5.931-11.212 10.963-18.317 15.09-10.227-2.271-20.136-2.693-29.618-1.282 1.411-9.48.989-19.387-1.28-29.612 4.082-7.027 9.045-13.088 14.891-18.151zm-46.454 16.656c7.413 21.345 3.466 39.272-12.066 54.804l-40.981 40.981c-.806-6.402-2.349-12.943-4.661-19.6-4.002-11.524-9.662-21.347-14.38-28.356l64.319-64.304c2.751 4.625 5.606 10.246 7.769 16.475zm-304.871 175.566c-5.096-3.956-10.814-7.488-17.155-10.56-10.979-5.319-21.927-8.263-30.219-9.882l.011-90.941c5.215 1.325 11.208 3.28 17.143 6.155 20.335 9.852 30.22 25.319 30.22 47.284zm30.015-58.987c.307-21.154 9.96-36.176 29.498-45.894 6.162-3.065 12.424-5.124 17.847-6.501l-.011 90.938c-8.292 1.619-19.242 4.563-30.222 9.883-6.329 3.066-12.037 6.591-17.126 10.538zm47.348-83.122c-8.292 1.619-19.242 4.563-30.222 9.883-6.33 3.067-12.036 6.593-17.126 10.541v-57.933c0-21.707 9.654-37.06 29.512-46.937 6.162-3.064 12.424-5.124 17.847-6.501zm-86.498-129.42c1.654-23.059 14.896-41.128 24.148-51.095 9.264 9.979 22.498 28.042 24.152 51.095.554 7.714-.223 15.509-2.305 23.363-8.835 5.626-16.139 12.333-21.845 20.034-5.706-7.701-13.01-14.408-21.845-20.034-2.083-7.854-2.859-15.649-2.305-23.363zm-21.071 44.626c20.335 9.852 30.221 25.319 30.221 47.285v57.956c-5.097-3.957-10.813-7.491-17.155-10.564-10.979-5.319-21.927-8.263-30.219-9.882l.011-90.95c5.214 1.324 11.208 3.28 17.142 6.155zm45.192 346.74c-34.386 0-62.361-27.975-62.361-62.361v-47.193c5.214 1.325 11.208 3.28 17.141 6.155 20.335 9.852 30.22 25.319 30.22 47.284h.014 29.986.014v-1.008c.297-21.172 9.95-36.206 29.499-45.928 6.163-3.065 12.426-5.125 17.849-6.501v47.192c-.001 34.385-27.976 62.36-62.362 62.36zm164.85-18.265c-11.779 11.778-27.439 18.265-44.096 18.265-15.317 0-29.783-5.498-41.171-15.539 8.114-13.738 12.778-29.744 12.778-46.822v-59.8l17.667-17.667c2.75 4.624 5.605 10.245 7.768 16.472 7.413 21.346 3.466 39.272-12.066 54.805l21.213 21.213.01.01.712-.712c15.182-14.762 32.636-18.567 53.336-11.619 6.525 2.19 12.41 5.163 17.218 8.023zm55.098-55.096c-7.009-4.718-16.833-10.379-28.359-14.382-6.644-2.307-13.172-3.851-19.562-4.658l41.696-41.676c15.177-14.747 32.627-18.546 53.319-11.602 6.524 2.19 12.408 5.162 17.216 8.022zm86.041-86.021c-7.009-4.718-16.833-10.379-28.358-14.382-6.645-2.307-13.174-3.849-19.564-4.656l40.966-40.966c15.35-15.349 33.031-19.379 54.058-12.321 6.524 2.19 12.408 5.162 17.216 8.022z"/></g></svg>