<svg id="Capa_1" enable-background="new 0 0 512 512" height="512" viewBox="0 0 512 512" width="512" xmlns="http://www.w3.org/2000/svg"><g><path d="m407 166.737h-95.263c-2.175 0-4.332.075-6.475.206v-11.943c0-57.897-47.103-105-105-105h-95.262c-57.897 0-105 47.103-105 105v37.631c0 84.161 68.47 152.631 152.631 152.631 19.836 0 38.79-3.823 56.19-10.741 12.03 72.234 74.954 127.479 150.548 127.479 84.161 0 152.631-68.47 152.631-152.631v-37.631c0-57.898-47.103-105.001-105-105.001zm-16.948 30c-.376 16.605-13.99 30-30.684 30-16.693 0-30.308-13.395-30.683-30zm-206.736-116.737c-.376 16.605-13.99 30-30.684 30s-30.308-13.395-30.684-30zm-153.316 112.631v-37.631c0-36.912 26.811-67.659 61.977-73.845.987 32.614 27.806 58.845 60.654 58.845s59.668-26.231 60.655-58.845c35.165 6.186 61.976 36.933 61.976 73.845v18.275c-39.97 14.854-68.525 53.384-68.525 98.462v30.916c-16.329 8.065-34.695 12.609-54.106 12.609-67.619.001-122.631-55.012-122.631-122.631zm452 116.738c0 67.619-55.012 122.631-122.631 122.631h-.001c-67.619 0-122.631-55.012-122.631-122.631v-37.631c0-36.912 26.811-67.659 61.977-73.845.987 32.613 27.806 58.845 60.655 58.845 32.848 0 59.667-26.231 60.654-58.845 35.166 6.185 61.977 36.933 61.977 73.844z"/></g></svg>