<svg id="Capa_1" enable-background="new 0 0 512 512" height="512" viewBox="0 0 512 512" width="512" xmlns="http://www.w3.org/2000/svg"><g><path d="m360.211 79.578v-79.578h-208.422v79.578l-49.895 60v372.422h308.211v-372.422zm-30-49.578v40h-148.422v-40zm-156.387 70h164.352l24.947 30h-214.246zm47.676 191h.66c11.028 0 20 8.972 20 20s-8.972 20-20 20h-21.333c-24.813 0-45 20.187-45 45 0 13.919-10.461 25.434-23.933 27.114v-183.22h19.606c13.785 0 25 11.215 25 25v1.106c0 24.813 20.187 45 45 45zm-89.605 191v-48.776c30.036-1.767 53.933-26.753 53.933-57.224 0-8.271 6.729-15 15-15h21.333c27.57 0 50-22.43 50-50s-22.43-50-50-50h-.66c-8.271 0-15-6.729-15-15v-1.105c0-30.327-24.673-55-55-55h-19.605v-29.895h248.211v30h-35.607c-24.813 0-45 20.187-45 45s20.187 45 45 45h35.605v29.667h-15.765c-24.602 0-44.617 20.015-44.617 44.617 0 4.255-3.461 7.716-7.716 7.716h-10c-24.813 0-45 20.187-45 45s20.187 45 45 45h78.099v30zm248.21-262v30h-35.605c-8.271 0-15-6.729-15-15s6.729-15 15-15zm0 119.667v82.333h-78.099c-8.271 0-15-6.729-15-15s6.729-15 15-15h10c20.797 0 37.716-16.919 37.716-37.716 0-8.06 6.558-14.617 14.617-14.617z"/></g></svg>