<svg id="Capa_1" enable-background="new 0 0 512.252 512.252" height="512" viewBox="0 0 512.252 512.252" width="512" xmlns="http://www.w3.org/2000/svg"><g><path d="m484.261 192.796c-9.489-38.429-34.935-70.334-70.286-88.135-25.223-30.505-61.991-48.212-101.566-48.912-35.959-16.54-76.767-16.539-112.731 0-39.57.7-76.337 18.405-101.566 48.912-35.365 17.808-60.815 49.729-70.299 88.186-24.539 32.383-33.408 73.433-24.333 113.191l1.348 5.904 143.176 93.603c4.188 35.629 34.57 63.363 71.308 63.363h73.464c36.737 0 67.119-27.733 71.308-63.363l143.182-93.606 1.56-6.853c9.01-39.486.058-80.267-24.565-112.29zm-3.695 100.754-145.991 95.443v8.115c0 23.048-18.752 41.8-41.801 41.8h-73.464c-23.049 0-41.801-18.751-41.801-41.8v-8.115l-145.938-95.409c-4.206-24.454.158-49.236 12.232-70.578l91.463 92.858 21.373-21.052-98.317-99.817c7.123-23.808 22.263-44.044 42.899-57.547l66.242 134.152 26.898-13.282-68.84-139.411c17.123-18.311 39.972-29.759 64.792-32.525l22.614 147.94 29.656-4.533-22.907-149.871c23.542-8.732 49.191-8.732 72.733 0l-22.909 149.87 29.656 4.533 22.614-147.94c24.82 2.766 47.669 14.214 64.792 32.526l-68.84 139.41 26.898 13.283 66.243-134.151c20.636 13.504 35.775 33.738 42.899 57.547l-98.317 99.816 21.373 21.052 91.55-92.946c12.234 21.302 16.604 46.151 12.198 70.632z"/></g></svg>