<svg id="Capa_1" enable-background="new 0 0 512 512" height="512" viewBox="0 0 512 512" width="512" xmlns="http://www.w3.org/2000/svg"><g><path d="m196.253 279.977c-35.138 0-63.725 28.587-63.725 63.725v44.573c0 35.138 28.587 63.725 63.725 63.725s63.725-28.587 63.725-63.725v-44.573c0-35.139-28.587-63.725-63.725-63.725zm33.725 108.298c0 18.596-15.129 33.725-33.725 33.725s-33.725-15.129-33.725-33.725v-44.573c0-18.596 15.129-33.725 33.725-33.725s33.725 15.129 33.725 33.725z"/><path d="m399.23 404.471c.314-2.364.494-4.77.494-7.219 0-30.188-24.56-54.747-54.747-54.747-9.004 0-17.5 2.199-25 6.066v-46.316c0-28.047-10.922-54.415-30.754-74.246l-17.971-17.971v-105.304h-22.592l-20.001-104.734h-64.812l-20 104.734h-22.593v105.304l-17.971 17.971c-19.832 19.832-30.754 46.199-30.754 74.247v209.744h252.196c11.076 0 21.388-3.316 30.014-8.994 8.62 5.673 18.917 8.994 29.986 8.994 30.188 0 54.747-24.56 54.747-54.747 0-25.166-17.074-46.406-40.242-52.782zm-54.252-31.965c13.646 0 24.747 11.102 24.747 24.747 0 2.702-.441 5.301-1.245 7.737-4.912 1.532-9.527 3.737-13.741 6.51-8.626-5.678-18.938-8.994-30.014-8.994-1.308 0-2.601.063-3.886.153-.39-1.742-.608-3.548-.608-5.406-.001-13.646 11.101-24.747 24.747-24.747zm-193.725-237.772h90v30h-90zm37.406-104.734h15.188l14.271 74.734h-43.729zm-86.131 272.256c0-20.034 7.802-38.868 21.967-53.033l26.758-26.758v-27.73h90v27.73l26.758 26.759c14.165 14.165 21.967 32.999 21.967 53.033v112.722c-12.204 10.049-20 25.268-20 42.275 0 8.903 2.15 17.309 5.937 24.747h-173.387zm222.197 179.744c-13.646 0-24.747-11.102-24.747-24.747s11.102-24.747 24.747-24.747 24.747 11.102 24.747 24.747-11.102 24.747-24.747 24.747zm60 0c-3.613 0-7.044-.782-10.141-2.18 3.13-6.887 4.888-14.523 4.888-22.567s-1.758-15.681-4.888-22.567c3.096-1.398 6.528-2.18 10.141-2.18 13.646 0 24.747 11.102 24.747 24.747s-11.102 24.747-24.747 24.747z"/></g></svg>