<svg id="Capa_1" enable-background="new 0 0 511.975 511.975" height="512" viewBox="0 0 511.975 511.975" width="512" xmlns="http://www.w3.org/2000/svg"><g><path d="m269.699 67.62c-6.821-38.378-40.405-67.62-80.712-67.62h-25v30h25c23.801 0 43.903 16.079 50.053 37.941-76.65 8.462-136.473 73.611-136.473 152.479v74.441c0 46.834 14.038 91.979 40.596 130.555s63.721 67.8 107.471 84.514l5.353 2.045 5.353-2.045c43.751-16.714 80.913-45.938 107.472-84.514 26.558-38.575 40.596-83.721 40.596-130.555v-74.441c-.001-79.974-61.514-145.841-139.709-152.8zm-13.712 29.38c34.451 0 65.645 14.195 88.056 37.036-2.333 8.219-9.89 14.264-18.846 14.264-10.811 0-19.605-8.795-19.605-19.605h-30c0 10.811-8.795 19.605-19.604 19.605-10.81 0-19.605-8.795-19.605-19.605h-30c0 10.811-8.795 19.605-19.605 19.605-8.957 0-16.513-6.045-18.846-14.264 22.41-22.841 53.604-37.036 88.055-37.036zm-107.613 63.052c9.104 11.13 22.937 18.248 38.404 18.248 13.451 0 25.661-5.389 34.605-14.112 8.944 8.723 21.154 14.112 34.605 14.112 13.45 0 25.66-5.389 34.605-14.112 8.945 8.723 21.155 14.112 34.605 14.112 15.467 0 29.299-7.119 38.403-18.248 10.058 17.859 15.807 38.453 15.807 60.369 0 10.81-8.795 19.604-19.605 19.604s-19.604-8.795-19.604-19.604h-30c0 10.81-8.795 19.604-19.605 19.604s-19.604-8.795-19.604-19.604h-30c0 10.81-8.795 19.604-19.605 19.604s-19.605-8.795-19.605-19.604h-30c0 10.81-8.795 19.604-19.605 19.604s-19.605-8.795-19.605-19.604c-.003-21.916 5.746-42.511 15.804-60.369zm107.613 95.86c8.944 8.723 21.154 14.112 34.604 14.112 6.39 0 12.495-1.228 18.109-3.438-5.055 68.144-22.979 135.05-52.714 196.608-29.735-61.558-47.658-128.464-52.714-196.608 5.614 2.21 11.719 3.438 18.109 3.438 13.452 0 25.662-5.389 34.606-14.112zm-88.113 152.492c-23.098-33.549-35.306-72.812-35.306-113.543v-28.884c6.017 2.6 12.644 4.047 19.605 4.047 7.48 0 14.573-1.674 20.94-4.651 4.621 67.796 21.308 134.498 49.143 196.47-21.26-14.053-39.69-32.097-54.382-53.439zm176.228 0c-14.693 21.341-33.123 39.386-54.382 53.438 27.835-61.971 44.522-128.673 49.143-196.469 6.366 2.977 13.459 4.651 20.939 4.651 6.961 0 13.588-1.448 19.605-4.047v28.884c0 40.732-12.209 79.994-35.305 113.543z"/></g></svg>