<svg id="Capa_1" enable-background="new 0 0 512.056 512.056" height="512" viewBox="0 0 512.056 512.056" width="512" xmlns="http://www.w3.org/2000/svg"><g><path d="m499.252 98.82c-15.674-35.015-43.857-61.938-79.358-75.81-36.84-14.396-76.926-13.322-112.874 3.023-17.509 7.961-32.922 19.04-45.679 32.597-3.645-4.887-7.607-9.584-11.9-14.05-26.588-27.656-62.213-43.467-100.314-44.521-39.543-1.109-76.902 13.467-105.208 41.001-28.316 27.543-43.91 64.463-43.91 103.958 0 24.929 6.436 49.521 18.612 71.119 13.918 24.688 14.013 55.072.247 79.293-12.076 21.248-18.595 45.457-18.851 70.013-.398 38.121 14.018 74.338 40.593 101.981 26.587 27.656 62.212 43.467 100.313 44.521 1.388.039 2.767.058 4.149.058 26.259 0 51.443-6.928 73.513-19.974 6.526 3.822 13.387 7.162 20.551 9.961 17.195 6.719 35.091 10.067 52.949 10.067 20.404 0 40.756-4.375 59.926-13.09 35.96-16.35 63.116-45.825 76.467-82.995 8.427-23.461 10.684-48.781 6.525-73.224-4.754-27.94 5.428-56.566 26.571-74.709 18.548-15.915 32.866-36.496 41.409-59.519 13.26-35.742 11.936-74.701-3.731-109.7zm-357.499 383.136c-57.25-1.584-104.233-45.782-110.923-101.357h59.686v-30h-59.33c2.036-14.179 6.693-27.907 13.763-40.346 18.942-33.328 18.867-75.037-.196-108.85-2.08-3.689-3.935-7.495-5.587-11.386h51.349v-30h-59.522c-.651-4.959-.984-9.97-.984-15 0-5.061.328-10.068.964-15h59.544v-30h-51.42c5.898-13.881 14.57-26.588 25.74-37.454 21.664-21.072 50.019-32.562 80.167-32.562 1.094 0 2.194.015 3.293.045 39.527 1.094 74.145 22.513 94.002 53.954-4.642 7.865-8.585 16.227-11.746 25.027-2.464 6.859-4.384 13.881-5.787 20.99h-25.232v30h22.487c.096 7.441.755 14.878 2.007 22.234 4.754 27.939-5.428 56.567-26.571 74.709-18.548 15.915-32.866 36.496-41.409 59.519-13.261 35.742-11.936 74.701 3.73 109.7 7.837 17.508 18.802 32.993 32.245 45.834-15.566 6.979-32.641 10.428-50.27 9.943zm300.286-236.686c-29.094 24.963-43.122 64.243-36.611 102.509.71 4.175 1.17 8.384 1.409 12.604l-48.327-17.358-10.141 28.234 56.02 20.121c-1.064 4.887-2.444 9.716-4.145 14.45-1.711 4.763-3.712 9.364-5.978 13.791l-56.039-20.128-10.141 28.234 48.393 17.382c-10.243 11.07-22.7 20.098-36.886 26.548-28.51 12.963-60.309 13.812-89.54 2.391-52.899-20.67-82.127-77.366-70.431-131.522l56.005 20.116 10.141-28.234-56.015-20.12c6.771-13.155 16.026-24.938 27.238-34.558 29.093-24.964 43.122-64.243 36.611-102.509-.71-4.175-1.17-8.384-1.409-12.604l48.326 17.358 10.142-28.234-56.02-20.121c1.064-4.887 2.444-9.716 4.145-14.449 1.711-4.763 3.712-9.364 5.977-13.791l56.038 20.128 10.142-28.234-48.393-17.384c10.243-11.07 22.7-20.097 36.886-26.548 15.201-6.912 31.338-10.379 47.521-10.379 14.168 0 28.373 2.658 42.018 7.989 52.899 20.67 82.127 77.366 70.431 131.521l-56.005-20.116-10.142 28.234 56.016 20.12c-6.77 13.156-16.025 24.939-27.236 34.559z"/></g></svg>