<svg id="Capa_1" enable-background="new 0 0 512.377 512.377" height="512" viewBox="0 0 512.377 512.377" width="512" xmlns="http://www.w3.org/2000/svg"><g><path d="m465.753 123.186c-54.334 3.86-106.684 19.77-153.469 46.059-14.833-48.779-39.786-94.317-73.705-133.426l-30.626-35.311-30.625 35.311c-42.523 49.029-70.952 108.161-83.006 171.119-15.663-3.218-31.593-5.422-47.697-6.566l-46.625-3.314 3.313 46.624c6.249 87.937 44.021 170.698 106.36 233.037 23.433 23.433 54.214 35.149 84.994 35.149 30.781 0 61.562-11.717 84.994-35.149 12.272-12.272 21.545-26.737 27.49-42.504 3.512.307 7.034.468 10.557.468 30.777 0 61.564-11.719 84.994-35.149 62.339-62.339 100.111-145.101 106.36-233.037l3.313-46.625zm2.126 29.924 12.121-.861-.861 12.121c-.954 13.432-2.728 26.729-5.255 39.834l-36.527-9.31-9.311-36.528c13.105-2.528 26.401-4.302 39.833-5.256zm-267.888-97.635 7.962-9.18 7.962 9.18c8.823 10.173 16.98 20.823 24.46 31.877l-32.422 19.251-32.416-19.247c7.479-11.054 15.63-21.708 24.454-31.881zm-40.14 57.456 48.102 28.562 48.108-28.566c12.738 23.009 22.728 47.413 29.769 72.704-18.927 12.863-36.732 27.531-53.115 43.914-7.605 7.605-13.967 15.987-19.104 24.888-28.087-17.409-58.406-30.96-90.136-40.247 6.619-35.498 18.907-69.691 36.376-101.255zm-115.353 117.364c13.432.955 26.732 2.713 39.837 5.241l-9.314 36.542-36.527 9.31c-2.527-13.105-4.301-26.401-5.255-39.834l-.861-12.12zm213.951 225.211c-17.587 17.586-40.68 26.379-63.781 26.376-23.095-.002-46.199-8.794-63.781-26.376-40.557-40.557-69.77-90.534-85.403-144.94l54.208-13.817 13.818-54.211c31.236 8.981 61.008 22.445 88.379 39.959-11.09 40.349-.818 85.392 30.827 117.037 13.043 13.043 28.36 22.45 44.686 28.233-4.455 10.22-10.832 19.618-18.953 27.739zm123.042-77.185c-35.17 35.167-92.394 35.167-127.562 0-17.036-17.036-26.418-39.688-26.418-63.781s9.382-46.745 26.418-63.781c40.557-40.556 90.534-69.77 144.94-85.403l13.817 54.207 54.208 13.817c-15.633 54.407-44.847 104.384-85.403 144.941z"/></g></svg>