<svg id="Capa_1" enable-background="new 0 0 512.016 512.016" height="512" viewBox="0 0 512.016 512.016" width="512" xmlns="http://www.w3.org/2000/svg"><g><path d="m226.138 198.449-29.265 29.265c-24.099 24.098-24.099 63.31 0 87.408 12.051 12.051 27.875 18.074 43.704 18.074 15.825 0 31.656-6.026 43.704-18.074l29.265-29.264c24.099-24.099 24.099-63.31 0-87.408-24.097-24.099-63.31-24.099-87.408-.001zm66.195 66.195-29.265 29.265c-6.008 6.007-13.995 9.316-22.491 9.316s-16.483-3.309-22.491-9.316c-6.008-6.008-9.316-13.995-9.316-22.491s3.309-16.483 9.316-22.491l29.265-29.265c6.008-6.007 13.995-9.316 22.491-9.316s16.483 3.309 22.491 9.316c6.008 6.008 9.315 13.995 9.315 22.491s-3.307 16.484-9.315 22.491z"/><path d="m364.08 76.373-29.321 29.321c-19.724 19.724-19.724 51.818 0 71.542 9.555 9.555 22.259 14.816 35.771 14.816s26.216-5.262 35.771-14.817l29.321-29.321c9.555-9.555 14.817-22.259 14.817-35.771s-5.263-26.216-14.817-35.771-22.258-14.817-35.771-14.817-26.216 5.262-35.771 14.818zm56.36 35.771c0 5.499-2.142 10.669-6.03 14.558l-29.321 29.322c-3.889 3.889-9.059 6.03-14.558 6.03s-10.67-2.142-14.559-6.03c-8.026-8.027-8.026-21.089 0-29.116l29.321-29.321c3.889-3.889 9.059-6.03 14.559-6.03 5.499 0 10.669 2.141 14.558 6.03 3.888 3.887 6.03 9.058 6.03 14.557z"/><path d="m139.889 321.519c-13.513 0-26.216 5.262-35.771 14.816l-29.321 29.321c-19.725 19.724-19.725 51.818 0 71.542 9.555 9.555 22.258 14.817 35.771 14.817s26.217-5.262 35.771-14.817l29.321-29.321c19.724-19.724 19.724-51.818 0-71.542-9.554-9.555-22.258-14.816-35.771-14.816zm14.559 65.146-29.321 29.321c-3.889 3.889-9.059 6.03-14.559 6.03-5.499 0-10.669-2.142-14.558-6.031-3.889-3.888-6.03-9.059-6.03-14.558s2.142-10.669 6.03-14.558l29.321-29.321c3.889-3.889 9.059-6.03 14.558-6.03 5.5 0 10.67 2.142 14.559 6.03 8.026 8.028 8.026 21.089 0 29.117z"/><path d="m415.409.101c-38.674.041-75.033 15.123-102.379 42.47l-20.696 20.697c-14.497 14.497-24.676 32.841-29.396 52.657-26.733 1.683-52.163 13.035-71.293 32.165l-45.131 45.13c-19.131 19.132-30.483 44.558-32.164 71.293-19.816 4.719-38.161 14.897-52.658 29.395l-29.322 29.322c-43.118 43.118-43.118 113.277 0 156.395 20.887 20.888 48.658 32.391 78.197 32.391s57.311-11.503 78.197-32.391l29.321-29.321c14.498-14.498 24.678-32.842 29.396-52.658 26.734-1.682 52.163-13.034 71.293-32.165l45.131-45.13c19.132-19.132 30.484-44.558 32.165-71.293 19.816-4.719 38.16-14.897 52.657-29.395l20.762-20.762c27.377-27.377 42.46-63.777 42.47-102.494l.025-96.407zm66.55 96.298c-.008 30.707-11.97 59.576-33.683 81.289l-20.762 20.762c-13.081 13.081-29.695 21.069-48.047 23.104l-14.165 1.57.844 14.227c1.364 22.998-7.185 45.518-23.454 61.788l-45.131 45.131c-16.27 16.269-38.785 24.817-61.788 23.454l-14.227-.844-1.57 14.165c-2.033 18.351-10.022 34.965-23.104 48.047l-29.321 29.321c-15.221 15.221-35.458 23.604-56.984 23.604s-41.764-8.382-56.984-23.604c-31.421-31.421-31.421-82.548 0-113.969l29.321-29.321c13.08-13.08 29.695-21.069 48.047-23.104l14.165-1.57-.844-14.227c-1.363-22.998 7.186-45.519 23.454-61.789l45.131-45.13c15.143-15.143 35.698-23.596 57.016-23.596 1.586 0 3.18.047 4.772.141l14.226.843 1.57-14.164c2.035-18.352 10.024-34.966 23.104-48.047l20.696-20.697c21.688-21.688 50.525-33.65 81.197-33.683l66.536-.07z"/></g></svg>