<svg id="Capa_1" enable-background="new 0 0 512 512" height="512" viewBox="0 0 512 512" width="512" xmlns="http://www.w3.org/2000/svg"><g><path d="m442.425 353.547-100.148-169.327v-184.22h-172.553v184.22l-100.149 169.327c-19.441 32.872-19.752 72.301-.83 105.475 18.92 33.173 53.016 52.978 91.207 52.978h192.098c38.19 0 72.286-19.805 91.207-52.979 18.92-33.173 18.61-72.603-.832-105.474zm-242.701-323.547h112.553v40h-112.553zm217.474 414.158c-13.516 23.696-37.87 37.842-65.149 37.842h-192.097c-27.278 0-51.633-14.146-65.148-37.842-13.515-23.695-13.293-51.859.594-75.339l104.327-176.391v-92.428h112.553v92.428l104.326 176.391c13.887 23.48 14.108 51.643.594 75.339z"/><path d="m345.405 341.079c-4.964 0-9.74.808-14.218 2.282l-32.569-42.625c6.377-8.723 10.154-19.462 10.154-31.071 0-29.099-23.673-52.772-52.771-52.772s-52.771 23.673-52.771 52.772c0 11.595 3.768 22.321 10.131 31.038l-33.492 43.764c-4.371-1.42-9.029-2.196-13.867-2.196-24.813 0-45 20.187-45 45s20.187 45 45 45 45-20.187 45-45c0-9.056-2.698-17.489-7.32-24.557l33.491-43.763c5.852 2.243 12.197 3.485 18.829 3.485 6.618 0 12.95-1.236 18.792-3.471l32.565 42.621c-4.765 7.202-7.549 15.825-7.549 25.088 0 25.142 20.454 45.596 45.596 45.596s45.594-20.454 45.594-45.596-20.454-45.595-45.595-45.595zm-179.405 61.192c-8.271 0-15-6.729-15-15s6.729-15 15-15 15 6.729 15 15-6.728 15-15 15zm67.229-132.607c0-12.557 10.215-22.772 22.771-22.772s22.771 10.215 22.771 22.772c0 12.556-10.215 22.771-22.771 22.771s-22.771-10.215-22.771-22.771zm112.176 132.607c-8.6 0-15.596-6.997-15.596-15.596s6.996-15.596 15.596-15.596 15.595 6.996 15.595 15.595-6.996 15.597-15.595 15.597z"/></g></svg>